<svg xmlns="http://www.w3.org/2000/svg"  viewBox="0 0 48 48" width="18px" height="18px"><path fill="#455a64" d="M42,19H6V9c0-1.657,1.343-3,3-3h30c1.657,0,3,1.343,3,3V19z"/><path fill="#bbdefb" d="M6,16h36v23c0,1.657-1.343,3-3,3H9c-1.657,0-3-1.343-3-3V16z"/><path fill="#8bc34a" d="M11 9A2 2 0 1 0 11 13A2 2 0 1 0 11 9Z"/><path fill="#ffeb3b" d="M17 9A2 2 0 1 0 17 13A2 2 0 1 0 17 9Z"/><path fill="#fafafa" d="M39,12c0,0.553-0.447,1-1,1H23c-0.553,0-1-0.447-1-1v-2c0-0.553,0.447-1,1-1h15c0.553,0,1,0.447,1,1 V12z"/></svg>