<svg xmlns="http://www.w3.org/2000/svg"  viewBox="0 0 48 48" width="18px" height="18px"><path fill="#E8EAF6" d="M4 9H44V39H4z"/><path fill="#5C6BC0" d="M30 34L32.8 34 27.8 29 25 31.8 30 36.8zM18 34L15.2 34 20.2 29 23 31.8 18 36.8z"/><g><path fill="#9FA8DA" d="M11 15H37V19H11zM24 23c-2.8 0-5 2.2-5 5s2.2 5 5 5 5-2.2 5-5S26.8 23 24 23zM24 31c-1.7 0-3-1.3-3-3s1.3-3 3-3 3 1.3 3 3S25.7 31 24 31z"/><path fill="#9FA8DA" d="M3,8v32h42V8H3z M43,35c-1.7,0-3,1.3-3,3H8c0-1.7-1.3-3-3-3V13c1.7,0,3-1.3,3-3h32c0,1.7,1.3,3,3,3V35z"/></g></svg>