<?xml version="1.0" encoding="UTF-8" standalone="no"?>
<!-- Generator: Adobe Illustrator 19.1.1, SVG Export Plug-In . SVG Version: 6.00 Build 0)  -->

<svg
   viewBox="0 0 48 48"
   width="18px"
   height="18px"
   version="1.1"
   id="svg1"
   sodipodi:docname="chat.svg"
   inkscape:version="1.4.2 (f4327f4, 2025-05-13)"
   xmlns:inkscape="http://www.inkscape.org/namespaces/inkscape"
   xmlns:sodipodi="http://sodipodi.sourceforge.net/DTD/sodipodi-0.dtd"
   xmlns="http://www.w3.org/2000/svg"
   xmlns:svg="http://www.w3.org/2000/svg">
  <defs
     id="defs1" />
  <sodipodi:namedview
     id="namedview1"
     pagecolor="#ffffff"
     bordercolor="#000000"
     borderopacity="0.25"
     inkscape:showpageshadow="2"
     inkscape:pageopacity="0.0"
     inkscape:pagecheckerboard="0"
     inkscape:deskcolor="#d1d1d1"
     inkscape:zoom="49.166667"
     inkscape:cx="9"
     inkscape:cy="7.5559322"
     inkscape:window-width="1920"
     inkscape:window-height="1129"
     inkscape:window-x="1912"
     inkscape:window-y="-8"
     inkscape:window-maximized="1"
     inkscape:current-layer="svg1" />
  <path
     fill="#448AFF"
     d="M24,4C13.5,4,5,12.1,5,22c0,5.2,2.3,9.8,6,13.1V44l7.8-4.7c1.6,0.4,3.4,0.7,5.2,0.7c10.5,0,19-8.1,19-18C43,12.1,34.5,4,24,4z"
     id="path1" />
  <path
     fill="#e3f2fd"
     d="m 15.270057,19.651977 a 2,2 0 1 0 0,4 2,2 0 1 0 0,-4 z m 9,0 a 2,2 0 1 0 0,4 2,2 0 1 0 0,-4 z m 9,0 a 2,2 0 1 0 0,4 2,2 0 1 0 0,-4 z"
     id="path2" />
</svg>
