<?xml version="1.0" encoding="iso-8859-1"?><!-- Generator: Adobe Illustrator 22.1.0, SVG Export Plug-In . SVG Version: 6.00 Build 0)  --><svg xmlns="http://www.w3.org/2000/svg" xmlns:xlink="http://www.w3.org/1999/xlink" viewBox="0 0 48 48" width="18px" height="18px"><g></g><path style="fill:#388E3C;" d="M43,38.833C43,41.135,41.135,43,38.833,43H17.167C14.866,43,13,41.135,13,38.833V17.167  C13,14.865,14.866,13,17.167,13h21.667C41.135,13,43,14.865,43,17.167V38.833z"/><path style="fill:#C8E6C9;" d="M35,30.833C35,33.135,33.135,35,30.833,35H9.167C6.866,35,5,33.135,5,30.833V9.167  C5,6.865,6.866,5,9.167,5h21.667C33.135,5,35,6.865,35,9.167V30.833z"/><polygon style="fill:#4CAF50;" points="18,28.121 11.064,21.186 13.186,19.064 18,23.879 28.814,13.064 30.936,15.186 "/></svg>