<svg xmlns="http://www.w3.org/2000/svg"  viewBox="0 0 32 42" width="18px" height="18px"><g data-name="Слой 2"><path fill="#90caf9" d="M32,42H0V0H22L32,10Z"/><path fill="#e1f5fe" d="M30.5,11H21V1.5Z"/><path fill="#1976d2" d="M23,22.5A4.5,4.5,0,1,1,18.5,18,4.5,4.5,0,0,1,23,22.5Z"/><path fill="#1976d2" d="M13,26.5A3.5,3.5,0,1,1,9.5,23,3.5,3.5,0,0,1,13,26.5Z"/><path fill="#1976d2" d="M26,26.5A3.5,3.5,0,1,1,22.5,23,3.5,3.5,0,0,1,26,26.5Z"/><path fill="#1976d2" d="M15.967,23.014a2.986,2.986,0,1,1-2.986-2.986A2.986,2.986,0,0,1,15.967,23.014Z"/><path fill="#1976d2" d="M19.767,25.323a3.442,3.442,0,1,1-3.442-3.442A3.443,3.443,0,0,1,19.767,25.323Z"/><path fill="#1976d2" d="M7.475,27.778A2.105,2.105,0,0,0,9.442,30H21.733A2.105,2.105,0,0,0,23.7,27.778v-.556A2.105,2.105,0,0,0,21.733,25H9.442a2.105,2.105,0,0,0-1.967,2.222Z"/></g></svg>