<?xml version="1.0" encoding="iso-8859-1"?>
<!-- Generator: Adobe Illustrator 25.2.3, SVG Export Plug-In . SVG Version: 6.00 Build 0)  -->
<svg version="1.1" baseProfile="basic" id="fluent" xmlns="http://www.w3.org/2000/svg" xmlns:xlink="http://www.w3.org/1999/xlink"
	 x="0px" y="0px" viewBox="0 0 48 48" xml:space="preserve">
<path style="fill:#455A64;" d="M42,19H6V9c0-1.657,1.343-3,3-3h30c1.657,0,3,1.343,3,3V19z"/>
<path style="fill:#BBDEFB;" d="M6,16h36v23c0,1.657-1.343,3-3,3H9c-1.657,0-3-1.343-3-3V16z"/>
<circle style="fill:#8BC34A;" cx="11" cy="11" r="2"/>
<circle style="fill:#FFEB3B;" cx="17" cy="11" r="2"/>
<path style="fill:#FAFAFA;" d="M39,12c0,0.553-0.447,1-1,1H23c-0.553,0-1-0.447-1-1v-2c0-0.553,0.447-1,1-1h15c0.553,0,1,0.447,1,1
	V12z"/>
<rect x="9" y="19" style="fill:#90CAF9;" width="17" height="11"/>
<rect x="9" y="33" style="fill:#90CAF9;" width="17" height="6"/>
<rect x="29" y="19" style="fill:#90CAF9;" width="10" height="20"/>
<path style="fill:#607D8B;" d="M45.2,38.1c0.1-0.4,0.1-0.8,0.1-1.1s0-0.8-0.1-1.1l2.3-1.7c0.2-0.2,0.3-0.5,0.2-0.7l-2.3-3.9
	c-0.1-0.2-0.4-0.3-0.7-0.2l-2.6,1.2c-0.6-0.5-1.3-0.9-2-1.2l-0.3-2.9c0-0.3-0.3-0.5-0.5-0.5h-4.6c-0.2,0-0.5,0.2-0.5,0.5l-0.3,2.9
	c-0.7,0.2-1.4,0.6-2,1.1l-2.6-1.2c-0.3-0.1-0.6,0-0.7,0.2l-2.3,4c-0.1,0.2,0,0.5,0.2,0.7l2.3,1.7c-0.1,0.4-0.1,0.8-0.1,1.1
	s0,0.8,0.1,1.1l-2.3,1.7c-0.2,0.2-0.3,0.5-0.2,0.7l2.3,3.9c0.1,0.2,0.4,0.3,0.7,0.2l2.6-1.2c0.6,0.5,1.3,0.9,2,1.2l0.3,2.9
	c0,0.3,0.3,0.5,0.5,0.5h4.5c0.3,0,0.5-0.2,0.5-0.5l0.3-2.9c0.7-0.3,1.4-0.7,2-1.2l2.6,1.2c0.3,0.1,0.6,0,0.7-0.2l2.3-3.9
	c0.1-0.2,0.1-0.6-0.2-0.7L45.2,38.1z M37,42.2c-2.9,0-5.2-2.3-5.2-5.2s2.3-5.2,5.2-5.2s5.2,2.3,5.2,5.2C42.2,39.9,39.9,42.2,37,42.2
	"/>
<circle style="fill:#FAFAFA;" cx="37" cy="37" r="4"/>
<path style="fill:#455A64;" d="M37,31c-3.3,0-6,2.7-6,6s2.7,6,6,6s6-2.7,6-6S40.3,31,37,31 M37,40c-1.7,0-3-1.3-3-3s1.3-3,3-3
	s3,1.3,3,3S38.7,40,37,40"/>
</svg>