<svg xmlns="http://www.w3.org/2000/svg" xmlns:xlink="http://www.w3.org/1999/xlink" viewBox="0,0,256,256" width="48px" height="48px" fill-rule="nonzero"><g fill="none" fill-rule="nonzero" stroke="none" stroke-width="1" stroke-linecap="butt" stroke-linejoin="miter" stroke-miterlimit="10" stroke-dasharray="" stroke-dashoffset="0" font-family="none" font-weight="none" font-size="none" text-anchor="none" style="mix-blend-mode: normal"><g transform="scale(5.33333,5.33333)"><path d="M6,8h36v26h-36z" fill="#546e7a"></path><path d="M8,10h32v21h-32z" fill="#bbdefb"></path><path d="M21,34h6v3h-6zM33,37c-2,0 -16,0 -18,0c-2,0 -2,2 -2,2v1h22v-1c0,0 0,-2 -2,-2z" fill="#455a64"></path></g></g><g fill="none" fill-rule="nonzero" stroke="none" stroke-width="1" stroke-linecap="butt" stroke-linejoin="miter" stroke-miterlimit="10" stroke-dasharray="" stroke-dashoffset="0" font-family="none" font-weight="none" font-size="none" text-anchor="none" style="mix-blend-mode: normal"><g transform="translate(131.66788,152.51625) scale(4.84837,4.84837)" id="overlay"><path d="M20.756,20h-19.512c-0.398,0 -0.796,-0.2 -1.095,-0.6c-0.199,-0.4 -0.199,-0.9 0,-1.3l9.756,-17.5c0.299,-0.4 0.697,-0.6 1.095,-0.6c0.398,0 0.796,0.2 1.095,0.6l9.756,17.5c0.199,0.4 0.199,0.9 0,1.3c-0.299,0.4 -0.697,0.6 -1.095,0.6z" fill="#ffc107"></path><path d="M10,15h2v-8h-2zM12,17c0,-0.552 -0.448,-1 -1,-1c-0.552,0 -1,0.448 -1,1c0,0.552 0.448,1 1,1c0.552,0 1,-0.448 1,-1z" fill="#5d4037"></path></g></g></svg>