<?xml version="1.0" encoding="iso-8859-1"?><!-- Generator: Adobe Illustrator 21.0.2, SVG Export Plug-In . SVG Version: 6.00 Build 0)  --><svg xmlns="http://www.w3.org/2000/svg" xmlns:xlink="http://www.w3.org/1999/xlink" viewBox="0 0 48 48" width="48px" height="48px"><path style="fill:#8BC34A;" d="M24,2l4.506,5.029L35,5l1.465,6.535L43,13l-2,6.494L46,24l-5,4.506L43,35l-6.535,1.465L35,43l-6.494-2.029L24,46l-4.506-5.029L13,43l-1.465-6.535L5,35l2-6.494L2,24l5-4.506L5,13l6.535-1.465L13,5l6.494,2.029L24,2z"/><g id="surface1_137_"><path style="fill:#CCFF90;" d="M34.602,14.602L21,28.199l-5.602-5.598l-2.797,2.797L21,33.801l16.398-16.402L34.602,14.602z"/></g></svg>