<svg xmlns="http://www.w3.org/2000/svg" xmlns:xlink="http://www.w3.org/1999/xlink" viewBox="0,0,256,256" width="48px" height="48px" fill-rule="nonzero"><g fill="none" fill-rule="nonzero" stroke="none" stroke-width="1" stroke-linecap="butt" stroke-linejoin="miter" stroke-miterlimit="10" stroke-dasharray="" stroke-dashoffset="0" font-family="none" font-weight="none" font-size="none" text-anchor="none" style="mix-blend-mode: normal"><g transform="scale(5.33333,5.33333)"><path d="M42,32h-36v-25c0,-0.555 0.449,-1 1,-1h34c0.555,0 1,0.445 1,1z" fill="#455a64"></path><path d="M8,8h32v20h-32z" fill="#bbdefb"></path><path d="M0,40h48v2h-48z" fill="#b0bec5"></path><path d="M42,30h-36l-6,10h48z" fill="#cfd8dc"></path><path d="M8,32h32l3,6h-38z" fill="#546e7a"></path><path d="M16.545,38l-0.545,2h16l-0.545,-2z" fill="#90a4ae"></path></g></g><g fill="#2196f3" fill-rule="nonzero" stroke="none" stroke-width="1" stroke-linecap="butt" stroke-linejoin="miter" stroke-miterlimit="10" stroke-dasharray="" stroke-dashoffset="0" font-family="none" font-weight="none" font-size="none" text-anchor="none" style="mix-blend-mode: normal"><g transform="translate(138.62319,147.66667) scale(4.63768,4.63768)" id="overlay"><path d="M10,3v-3l-7,5l7,5v-3c3.3,0 6,2.7 6,6c0,3.3 -2.7,6 -6,6c-3.3,0 -6,-2.7 -6,-6c0,-0.3 0,-0.6 0.1,-0.9l-3.4,-2.7c-0.4,1.1 -0.7,2.3 -0.7,3.6c0,5.5 4.5,10 10,10c5.5,0 10,-4.5 10,-10c0,-5.5 -4.5,-10 -10,-10z"></path></g></g></svg>