<svg xmlns="http://www.w3.org/2000/svg" xmlns:xlink="http://www.w3.org/1999/xlink" viewBox="0,0,256,256" width="18px" height="18px" fill-rule="nonzero"><g fill="none" fill-rule="nonzero" stroke="none" stroke-width="1" stroke-linecap="butt" stroke-linejoin="miter" stroke-miterlimit="10" stroke-dasharray="" stroke-dashoffset="0" font-family="none" font-weight="none" font-size="none" text-anchor="none" style="mix-blend-mode: normal"><g transform="scale(5.33333,5.33333)"><path d="M6,8h36v26h-36z" fill="#546e7a"></path><path d="M8,10h32v21h-32z" fill="#bbdefb"></path><path d="M21,34h6v3h-6zM33,37c-2,0 -16,0 -18,0c-2,0 -2,2 -2,2v1h22v-1c0,0 0,-2 -2,-2z" fill="#455a64"></path></g></g><g fill="none" fill-rule="nonzero" stroke="none" stroke-width="1" stroke-linecap="butt" stroke-linejoin="miter" stroke-miterlimit="10" stroke-dasharray="" stroke-dashoffset="0" font-family="none" font-weight="none" font-size="none" text-anchor="none" style="mix-blend-mode: normal"><g transform="translate(134.20533,147.66133) scale(5.33333,5.33333)" id="overlay"><g fill="#42a5f5"><path d="M12.024,16.001h-12v-16h7.5l4.5,4.5z"></path></g><path d="M11.024,5.001h-4v-4z" fill="#e1f5fe"></path><g fill="#90caf9"><path d="M19.024,20.001h-12v-16h7.5l4.5,4.5z"></path></g><path d="M18.024,9.001h-4v-4z" fill="#e1f5fe"></path></g></g></svg>