<?xml version="1.0" encoding="utf-8"?><!-- Generator: Adobe Illustrator 15.0.0, SVG Export Plug-In . SVG Version: 6.00 Build 0)  --><!DOCTYPE svg PUBLIC "-//W3C//DTD SVG 1.1//EN" "http://www.w3.org/Graphics/SVG/1.1/DTD/svg11.dtd"><svg xmlns="http://www.w3.org/2000/svg" xmlns:xlink="http://www.w3.org/1999/xlink" viewBox="0 0 48 48" width="48px" height="48px"><polygon fill="#42A5F5" points="31,36 6,36 6,3 23,3 31,11 "/><polygon fill="#E1F5FE" points="29.5,12 22,12 22,4.5 "/><g><rect x="11" y="16" fill="#1565C0" width="16" height="2"/><rect x="11" y="20" fill="#1565C0" width="12" height="2"/><rect x="11" y="24" fill="#1565C0" width="16" height="2"/><rect x="11" y="28" fill="#1565C0" width="12" height="2"/></g><polygon fill="#90CAF9" points="42,44 17,44 17,11 34,11 42,19 "/><polygon fill="#E1F5FE" points="40.5,20 33,20 33,12.5 "/><g><rect x="22" y="24" fill="#1976D2" width="15" height="2"/><rect x="22" y="28" fill="#1976D2" width="11" height="2"/><rect x="22" y="32" fill="#1976D2" width="15" height="2"/><rect x="22" y="36" fill="#1976D2" width="11" height="2"/></g></svg>