<?xml version="1.0" encoding="utf-8"?><!-- Generator: Adobe Illustrator 15.0.0, SVG Export Plug-In . SVG Version: 6.00 Build 0)  --><!DOCTYPE svg PUBLIC "-//W3C//DTD SVG 1.1//EN" "http://www.w3.org/Graphics/SVG/1.1/DTD/svg11.dtd"><svg xmlns="http://www.w3.org/2000/svg" xmlns:xlink="http://www.w3.org/1999/xlink" viewBox="0 0 48 48" width="18px" height="18px"><path fill="#CFD8DC" d="M43,38c0,2.209-1.791,4-4,4H9c-2.209,0-4-1.791-4-4V10c0-2.209,1.791-4,4-4h30c2.209,0,4,1.791,4,4V38z"/><rect x="10" y="10" fill="#F44336" width="28" height="4"/><g><rect x="16" y="22" fill="#90A4AE" width="22" height="4"/><rect x="16" y="28" fill="#90A4AE" width="22" height="4"/><rect x="16" y="34" fill="#90A4AE" width="22" height="4"/><rect x="10" y="22" fill="#90A4AE" width="4" height="4"/><rect x="10" y="28" fill="#90A4AE" width="4" height="4"/><rect x="10" y="34" fill="#90A4AE" width="4" height="4"/><rect x="16" y="16" fill="#90A4AE" width="22" height="4"/><rect x="10" y="16" fill="#90A4AE" width="4" height="4"/></g></svg>