<svg xmlns="http://www.w3.org/2000/svg" xmlns:xlink="http://www.w3.org/1999/xlink" viewBox="0,0,256,256" width="48px" height="48px" fill-rule="nonzero"><g fill="none" fill-rule="nonzero" stroke="none" stroke-width="1" stroke-linecap="butt" stroke-linejoin="miter" stroke-miterlimit="10" stroke-dasharray="" stroke-dashoffset="0" font-family="none" font-weight="none" font-size="none" text-anchor="none" style="mix-blend-mode: normal"><g transform="scale(5.33333,5.33333)"><path transform="translate(19.99009,-10.62315) rotate(45.001)" d="M21.318,13.818h3v10h-3z" fill="#ffc107"></path><path transform="translate(26.35454,-13.25991) rotate(45.001)" d="M27.682,20.182h3v10h-3z" fill="#ffc107"></path><path d="M35.637,23.678l4.363,-4.243v-5.435l-6,-6h-5.436l-4.242,4.364z" fill="#90a4ae"></path><path transform="translate(18.31048,-23.69559) rotate(45.009)" d="M35.75,6.24h4v8.021h-4z" fill="#90a4ae"></path><path d="M23.678,35.636l-4.243,4.364h-5.435l-6,-6v-5.436l4.364,-4.242z" fill="#90a4ae"></path><path transform="translate(29.61644,3.60547) rotate(45.009)" d="M8.457,33.239h4v8.608h-4z" fill="#90a4ae"></path><g fill="#546e7a"><path transform="translate(22.109,-14.50653) rotate(45.001)" d="M18.565,17.434h20v4.001h-20z"></path><path transform="translate(25.89148,-5.37601) rotate(45.001)" d="M9.435,26.565h19.999v4h-19.999z"></path></g></g></g><g fill="none" fill-rule="nonzero" stroke="none" stroke-width="1" stroke-linecap="butt" stroke-linejoin="miter" stroke-miterlimit="10" stroke-dasharray="" stroke-dashoffset="0" font-family="none" font-weight="none" font-size="none" text-anchor="none" style="mix-blend-mode: normal"><g transform="translate(131.66667,147.66667) scale(5.33333,5.33333)" id="overlay"><path d="M20,10c0,5.5 -4.5,10 -10,10c-5.5,0 -10,-4.5 -10,-10c0,-5.5 4.5,-10 10,-10c5.5,0 10,4.5 10,10" fill="#2196f3"></path><g fill="#ffffff"><path d="M11,15h-2v-7.4l-2,0.7v-1.8l3.8,-1.5h0.2z"></path></g></g></g></svg>