<svg xmlns="http://www.w3.org/2000/svg"  viewBox="0 0 48 48" width="18px" height="18px"><path fill="#FFC107" d="M22 17.992L33.081 6.919 31.134 4.975 20.052 16.048zM28.918 24.906L39.999 13.833 38.086 11.923 27.004 22.996z"/><path fill="#CFD8DC" d="M15.503,41.978c-1.325,0-2.254-0.11-2.368-0.125c-3.05-0.673-4.725-1.865-5.072-3.562c-0.625-3.057,3.556-6.153,4.034-6.496l1.166,1.625c-1.182,0.851-3.53,3.062-3.24,4.472c0.17,0.828,1.396,1.536,3.453,1.992l0,0c0.04,0,7.589,0.872,10.27-2.7c3.209-4.274,12.736-4.206,15.867-4.186L40.024,33v2l-0.426-0.002c-9.615-0.06-13.065,1.805-14.253,3.387C23.033,41.466,18.354,41.978,15.503,41.978z"/><path fill="#90A4AE" d="M18.442 13.229L13.883 17.784 14.502 24.79 20.145 30.47 27.181 31.073 31.74 26.518z"/><g><path fill="#546E7A" d="M20.145 30.47L14.502 24.79 10.065 30.456 14.498 34.886 20.146 30.47zM36.809 24.404L32.704 28.507 16.451 12.265 20.555 8.164z"/></g></svg>