<svg xmlns="http://www.w3.org/2000/svg"  viewBox="0 0 48 48" width="18px" height="18px"><path fill="#2196F3" d="M42 42L31 42 42 31z"/><path fill="#2196F3" d="M39.55 41.404c-.512 0-1.022-.194-1.413-.586L28.316 31l2.828-2.828 9.818 9.819c.781.78.781 2.047 0 2.827C40.573 41.21 40.063 41.404 39.55 41.404zM17 42L6 42 6 31z"/><path fill="#2196F3" d="M8.45 41.55c-.512 0-1.023-.194-1.414-.586-.781-.78-.781-2.047 0-2.828l9.136-9.823L19 31.141l-9.136 9.823C9.474 41.354 8.962 41.55 8.45 41.55zM42 6L31 6 42 17z"/><path fill="#2196F3" d="M39.55 6.595c-.512 0-1.022.195-1.413.586L28.172 17l2.973 2.828 9.819-9.819c.781-.781.781-2.047 0-2.828C40.573 6.79 40.063 6.595 39.55 6.595zM17 6L6 6 6 17z"/><path fill="#2196F3" d="M8.653,6.591c-0.512,0-1.023,0.195-1.414,0.586c-0.781,0.781-0.781,2.047,0,2.828L17,19.828L19.828,17l-9.761-9.823C9.677,6.786,9.165,6.591,8.653,6.591z"/></svg>