<?xml version="1.0" encoding="utf-8"?><!-- Generator: Adobe Illustrator 15.0.0, SVG Export Plug-In . SVG Version: 6.00 Build 0)  --><!DOCTYPE svg PUBLIC "-//W3C//DTD SVG 1.1//EN" "http://www.w3.org/Graphics/SVG/1.1/DTD/svg11.dtd"><svg xmlns="http://www.w3.org/2000/svg" xmlns:xlink="http://www.w3.org/1999/xlink" viewBox="0 0 48 48" width="48px" height="48px"><polygon fill="#FF80AB" points="40,45 8,45 8,3 30,3 40,13 "/><polygon fill="#FCE4EC" points="38.5,14 29,14 29,4.5 "/><g><path fill="#E91E63" d="M18.94,28.693H15.81v2.639h3.705V33H13.8v-9.953h5.701v1.675H15.81v2.352h3.131V28.693z"/><path fill="#E91E63" d="M23.787,26.465l1.34-3.418h2.304l-2.338,4.936L27.485,33h-2.331l-1.367-3.479L22.427,33h-2.331l2.393-5.018l-2.345-4.936h2.304L23.787,26.465z"/><path fill="#E91E63" d="M33.645,28.693h-3.131v2.639h3.705V33h-5.715v-9.953h5.701v1.675h-3.691v2.352h3.131V28.693z"/></g></svg>