<?xml version="1.0" encoding="iso-8859-1"?><!-- Generator: Adobe Illustrator 19.1.1, SVG Export Plug-In . SVG Version: 6.00 Build 0)  --><svg xmlns="http://www.w3.org/2000/svg" xmlns:xlink="http://www.w3.org/1999/xlink" viewBox="0 0 48 48" width="48px" height="48px"><polygon style="fill:#FF9100;" points="40,45 8,45 8,3 30,3 40,13 "/><polygon style="fill:#FFE0B2;" points="38.5,14 29,14 29,4.5 "/><path style="fill:#FFE0B2;" d="M16.008,29.363H15.01V33H13v-9.953h3.206c1.008,0,1.785,0.262,2.335,0.781c0.549,0.524,0.823,1.266,0.823,2.227c0,1.32-0.481,2.246-1.442,2.775l1.743,4.074V33h-2.16L16.008,29.363z M15.01,27.688h1.142c0.401,0,0.702-0.133,0.902-0.398c0.201-0.266,0.301-0.625,0.301-1.07c0-0.998-0.39-1.496-1.169-1.496H15.01V27.688z"/><path style="fill:#FFE0B2;" d="M25.496,30.963h-2.741L22.222,33h-2.126l3.11-9.953h1.839L28.176,33h-2.146L25.496,30.963z M23.192,29.289h1.859l-0.93-3.549L23.192,29.289z"/><path style="fill:#FFE0B2;" d="M32.008,29.363H31.01V33H29v-9.953h3.206c1.008,0,1.785,0.262,2.335,0.781c0.549,0.524,0.823,1.266,0.823,2.227c0,1.32-0.48,2.246-1.442,2.775l1.743,4.074V33h-2.16L32.008,29.363z M31.01,27.688h1.142c0.401,0,0.702-0.133,0.902-0.398c0.201-0.266,0.301-0.625,0.301-1.07c0-0.998-0.39-1.496-1.169-1.496H31.01V27.688z"/></svg>