<?xml version="1.0" encoding="utf-8"?><!-- Generator: Adobe Illustrator 15.0.0, SVG Export Plug-In . SVG Version: 6.00 Build 0)  --><!DOCTYPE svg PUBLIC "-//W3C//DTD SVG 1.1//EN" "http://www.w3.org/Graphics/SVG/1.1/DTD/svg11.dtd"><svg xmlns="http://www.w3.org/2000/svg" xmlns:xlink="http://www.w3.org/1999/xlink" viewBox="0 0 48 48" width="48px" height="48px"><polygon fill="#4DB6AC" points="40,45 8,45 8,3 30,3 40,13 "/><polygon fill="#E0F2F1" points="38.5,14 29,14 29,4.5 "/><g><path fill="#00695C" d="M14,33v-9.953h2.632c1.162,0,2.088,0.369,2.779,1.107s1.042,1.75,1.056,3.035v1.613c0,1.308-0.345,2.335-1.036,3.079C18.741,32.628,17.79,33,16.577,33H14z M16.01,24.722v6.61h0.602c0.67,0,1.142-0.177,1.415-0.53c0.273-0.353,0.417-0.962,0.431-1.828v-1.729c0-0.93-0.13-1.578-0.39-1.944c-0.26-0.367-0.702-0.56-1.326-0.578H16.01z"/><path fill="#00695C" d="M23.919,31.332h3.527V33h-5.537v-9.953h2.01V31.332z"/><path fill="#00695C" d="M30.618,31.332h3.527V33h-5.537v-9.953h2.01V31.332z"/></g></svg>