<?xml version="1.0" encoding="utf-8"?><!-- Generator: Adobe Illustrator 15.0.0, SVG Export Plug-In . SVG Version: 6.00 Build 0)  --><!DOCTYPE svg PUBLIC "-//W3C//DTD SVG 1.1//EN" "http://www.w3.org/Graphics/SVG/1.1/DTD/svg11.dtd"><svg xmlns="http://www.w3.org/2000/svg" xmlns:xlink="http://www.w3.org/1999/xlink" viewBox="0 0 48 48" width="48px" height="48px"><polygon fill="#3F51B5" points="40,45 8,45 8,3 30,3 40,13 "/><polygon fill="#E8EAF6" points="38.5,14 29,14 29,4.5 "/><g><path fill="#E8EAF6" d="M22.567,31.872c-0.387,0.419-0.862,0.734-1.425,0.947c-0.563,0.211-1.179,0.317-1.849,0.317c-1.144,0-2.033-0.354-2.666-1.063c-0.633-0.708-0.959-1.739-0.978-3.093v-1.791c0-1.372,0.3-2.428,0.899-3.169c0.599-0.74,1.473-1.11,2.622-1.11c1.08,0,1.895,0.267,2.444,0.8s0.867,1.369,0.954,2.509h-1.955c-0.055-0.634-0.187-1.065-0.396-1.296c-0.209-0.229-0.538-0.345-0.984-0.345c-0.542,0-0.937,0.198-1.183,0.595s-0.374,1.027-0.383,1.894v1.805c0,0.907,0.136,1.566,0.407,1.979c0.271,0.412,0.717,0.618,1.336,0.618c0.396,0,0.718-0.08,0.964-0.239l0.178-0.123v-1.825h-1.408v-1.518h3.425V31.872z"/><path fill="#E8EAF6" d="M26.088,33h-2.01v-9.953h2.01V33z"/><path fill="#E8EAF6" d="M32.91,28.939h-3.125V33h-2.01v-9.953h5.51v1.675h-3.5v2.55h3.125V28.939z"/></g></svg>