<?xml version="1.0" encoding="utf-8"?><!-- Generator: Adobe Illustrator 15.0.0, SVG Export Plug-In . SVG Version: 6.00 Build 0)  --><!DOCTYPE svg PUBLIC "-//W3C//DTD SVG 1.1//EN" "http://www.w3.org/Graphics/SVG/1.1/DTD/svg11.dtd"><svg xmlns="http://www.w3.org/2000/svg" xmlns:xlink="http://www.w3.org/1999/xlink" viewBox="0 0 48 48" width="48px" height="48px"><polygon fill="#3F51B5" points="40,45 8,45 8,3 30,3 40,13 "/><polygon fill="#E8EAF6" points="38.5,14 29,14 29,4.5 "/><g><path fill="#E8EAF6" d="M17.074,23.047h2.01v6.891c0,0.966-0.269,1.741-0.807,2.324s-1.23,0.875-2.078,0.875c-0.912,0-1.62-0.271-2.126-0.813s-0.759-1.297-0.759-2.263h2.017c0,0.938,0.29,1.408,0.868,1.408c0.583,0,0.875-0.542,0.875-1.627V23.047z"/><path fill="#E8EAF6" d="M22.673,29.5V33h-2.01v-9.953h3.391c0.984,0,1.77,0.306,2.354,0.916c0.586,0.61,0.879,1.403,0.879,2.379s-0.289,1.745-0.868,2.311S25.038,29.5,24.013,29.5H22.673z M22.673,27.825h1.381c0.383,0,0.679-0.125,0.889-0.376c0.21-0.251,0.314-0.615,0.314-1.094c0-0.497-0.106-0.892-0.321-1.187c-0.214-0.293-0.501-0.442-0.861-0.447h-1.401V27.825z"/><path fill="#E8EAF6" d="M35.395,31.872c-0.387,0.419-0.862,0.734-1.426,0.947c-0.563,0.211-1.179,0.317-1.849,0.317c-1.144,0-2.032-0.354-2.666-1.063c-0.634-0.708-0.96-1.739-0.978-3.093v-1.791c0-1.372,0.3-2.428,0.898-3.169c0.6-0.74,1.474-1.11,2.622-1.11c1.08,0,1.895,0.267,2.444,0.8c0.549,0.533,0.867,1.369,0.953,2.509h-1.955c-0.055-0.634-0.188-1.065-0.396-1.296c-0.209-0.229-0.537-0.345-0.984-0.345c-0.543,0-0.937,0.198-1.183,0.595s-0.374,1.027-0.383,1.894v1.805c0,0.907,0.136,1.566,0.407,1.979c0.271,0.412,0.717,0.618,1.336,0.618c0.396,0,0.718-0.08,0.964-0.239l0.178-0.123v-1.825H31.97v-1.518h3.425V31.872z"/></g></svg>