<?xml version="1.0" encoding="iso-8859-1"?><!-- Generator: Adobe Illustrator 19.1.1, SVG Export Plug-In . SVG Version: 6.00 Build 0)  --><svg xmlns="http://www.w3.org/2000/svg" xmlns:xlink="http://www.w3.org/1999/xlink" viewBox="0 0 48 48" width="48px" height="48px"><polygon style="fill:#FF9100;" points="40,45 8,45 8,3 30,3 40,13 "/><polygon style="fill:#FFE0B2;" points="38.5,14 29,14 29,4.5 "/><g><path style="fill:#FFE0B2;" d="M17.393,31.331h4.102V33h-6.453v-1.211l4.06-7.066H15v-1.676h6.419v1.184L17.393,31.331z"/><path style="fill:#FFE0B2;" d="M24.83,33h-2.01v-9.953h2.01V33z"/><path style="fill:#FFE0B2;" d="M28.528,29.5V33h-2.01v-9.953h3.391c0.984,0,1.769,0.305,2.354,0.916c0.586,0.611,0.879,1.404,0.879,2.379s-0.29,1.744-0.868,2.31c-0.579,0.566-1.381,0.848-2.406,0.848H28.528z M28.528,27.824h1.381c0.383,0,0.679-0.125,0.889-0.375c0.209-0.25,0.315-0.615,0.315-1.094c0-0.496-0.107-0.891-0.321-1.188c-0.215-0.293-0.502-0.441-0.861-0.445h-1.401V27.824z"/></g></svg>