<?xml version="1.0" encoding="utf-8"?><!-- Generator: Adobe Illustrator 15.0.0, SVG Export Plug-In . SVG Version: 6.00 Build 0)  --><!DOCTYPE svg PUBLIC "-//W3C//DTD SVG 1.1//EN" "http://www.w3.org/Graphics/SVG/1.1/DTD/svg11.dtd"><svg xmlns="http://www.w3.org/2000/svg" xmlns:xlink="http://www.w3.org/1999/xlink" viewBox="0 0 48 48" width="48px" height="48px"><polygon fill="#FFC107" points="40,45 8,45 8,3 30,3 40,13 "/><polygon fill="#FFF3E0" points="38.5,14 29,14 29,4.5 "/><g><path fill="#C47205" d="M14.425,23.047l1.88,7.198l1.873-7.198h2.625V33h-2.017v-2.693l0.185-4.149L16.981,33h-1.367l-1.989-6.843l0.185,4.149V33H11.8v-9.953H14.425z"/><path fill="#C47205" d="M24.426,29.5V33h-2.01v-9.953h3.391c0.984,0,1.77,0.306,2.355,0.916c0.585,0.61,0.878,1.403,0.878,2.379s-0.29,1.745-0.868,2.311S26.791,29.5,25.766,29.5H24.426z M24.426,27.825h1.381c0.383,0,0.68-0.125,0.889-0.376s0.314-0.615,0.314-1.094c0-0.497-0.107-0.892-0.321-1.187c-0.214-0.293-0.501-0.442-0.861-0.447h-1.401V27.825z"/><path fill="#C47205" d="M31.952,27.142h0.937c0.355,0,0.616-0.125,0.783-0.374c0.166-0.25,0.249-0.583,0.249-1c0-0.398-0.085-0.709-0.257-0.932c-0.17-0.222-0.399-0.333-0.687-0.333c-0.269,0-0.489,0.106-0.659,0.318c-0.172,0.212-0.257,0.479-0.257,0.803h-1.935c0-0.52,0.119-0.985,0.359-1.398c0.238-0.412,0.574-0.734,1.004-0.967c0.432-0.232,0.908-0.349,1.433-0.349c0.916,0,1.634,0.253,2.153,0.759s0.779,1.198,0.779,2.078c0,0.451-0.117,0.869-0.352,1.254c-0.235,0.386-0.544,0.681-0.927,0.886c0.47,0.2,0.819,0.501,1.05,0.902c0.229,0.401,0.345,0.875,0.345,1.422c0,0.884-0.281,1.593-0.845,2.126c-0.563,0.533-1.302,0.8-2.218,0.8c-0.853,0-1.544-0.263-2.075-0.79c-0.53-0.525-0.796-1.218-0.796-2.074h1.935c0,0.359,0.094,0.661,0.28,0.905s0.424,0.366,0.711,0.366c0.333,0,0.596-0.124,0.79-0.371c0.193-0.247,0.29-0.577,0.29-0.989c0-0.984-0.38-1.479-1.142-1.483h-0.95V27.142z"/></g></svg>