<?xml version="1.0" encoding="utf-8"?><!-- Generator: Adobe Illustrator 15.0.0, SVG Export Plug-In . SVG Version: 6.00 Build 0)  --><!DOCTYPE svg PUBLIC "-//W3C//DTD SVG 1.1//EN" "http://www.w3.org/Graphics/SVG/1.1/DTD/svg11.dtd"><svg xmlns="http://www.w3.org/2000/svg" xmlns:xlink="http://www.w3.org/1999/xlink" viewBox="0 0 48 48" width="48px" height="48px"><polygon fill="#FF80AB" points="40,45 8,45 8,3 30,3 40,13 "/><polygon fill="#FCE4EC" points="38.5,14 29,14 29,4.5 "/><g><path fill="#E91E63" d="M11.707,33v-9.953h2.632c1.162,0,2.088,0.369,2.779,1.107s1.042,1.75,1.056,3.035v1.613c0,1.308-0.345,2.335-1.036,3.079C16.448,32.628,15.497,33,14.284,33H11.707z M13.717,24.722v6.61h0.602c0.67,0,1.142-0.177,1.415-0.53c0.273-0.353,0.417-0.962,0.431-1.828v-1.729c0-0.93-0.13-1.578-0.39-1.944c-0.26-0.367-0.702-0.56-1.326-0.578H13.717z"/><path fill="#E91E63" d="M22.241,23.047l1.88,7.198l1.873-7.198h2.625V33h-2.017v-2.693l0.185-4.149L24.798,33h-1.367l-1.989-6.843l0.185,4.149V33h-2.01v-9.953H22.241z"/><path fill="#E91E63" d="M37,31.872c-0.387,0.419-0.862,0.734-1.426,0.947c-0.563,0.211-1.179,0.317-1.849,0.317c-1.144,0-2.032-0.354-2.666-1.063c-0.634-0.708-0.96-1.739-0.978-3.093v-1.791c0-1.372,0.3-2.428,0.898-3.169c0.6-0.74,1.474-1.11,2.622-1.11c1.08,0,1.895,0.267,2.444,0.8c0.549,0.533,0.867,1.369,0.953,2.509h-1.955c-0.055-0.634-0.188-1.065-0.396-1.296c-0.209-0.229-0.537-0.345-0.984-0.345c-0.543,0-0.937,0.198-1.183,0.595s-0.374,1.027-0.383,1.894v1.805c0,0.907,0.136,1.566,0.407,1.979c0.271,0.412,0.717,0.618,1.336,0.618c0.396,0,0.718-0.08,0.964-0.239l0.178-0.123v-1.825h-1.408v-1.518H37V31.872z"/></g></svg>