<?xml version="1.0" encoding="iso-8859-1"?><!-- Generator: Adobe Illustrator 20.0.0, SVG Export Plug-In . SVG Version: 6.00 Build 0)  --><svg xmlns="http://www.w3.org/2000/svg" xmlns:xlink="http://www.w3.org/1999/xlink" viewBox="0 0 48 48" width="48px" height="48px"><polygon style="fill:#FF80AB;" points="40,45 8,45 8,3 30,3 40,13 "/><polygon style="fill:#FCE4EC;" points="38.5,14 29,14 29,4.5 "/><path style="fill:#E91E63;" d="M17.217,31.054h-2.741l-0.533,2.037h-2.126l3.11-9.953h1.839l3.131,9.953H17.75L17.217,31.054z M14.913,29.379h1.859l-0.93-3.548L14.913,29.379z"/><path style="fill:#E91E63;" d="M32.152,29.249l-0.793,0.998v2.844h-2.01v-9.953h2.01v4.341l0.636-1.073l1.853-3.268h2.461l-2.851,4.375l2.898,5.578h-2.386L32.152,29.249z"/><path style="fill:#E91E63;" d="M23.396,29.591v3.5h-2.01v-9.953h3.391c2.375,0,3.233,1.879,3.233,3.295c0,2.511-1.926,3.158-3.233,3.158H23.396z M23.396,27.916h1.381c1.187,0,1.203-1.256,1.203-1.47s-0.057-1.634-1.203-1.634h-1.381V27.916z"/></svg>