<?xml version="1.0" encoding="utf-8"?><!-- Generator: Adobe Illustrator 19.1.1, SVG Export Plug-In . SVG Version: 6.00 Build 0)  --><svg xmlns="http://www.w3.org/2000/svg" xmlns:xlink="http://www.w3.org/1999/xlink" viewBox="0 0 48 48" width="48px" height="48px"><polygon fill="#FF6D00" points="40,45 8,45 8,3 30,3 40,13 "/><polygon fill="#FFF3E0" points="38.5,14 29,14 29,4.5 "/><path fill="#FFFFFF" d="M23.4,29.5V33h-2V23h3.4c1,0,1.8,0.3,2.4,0.9c0.6,0.6,0.9,1.4,0.9,2.4c0,1-0.3,1.7-0.9,2.3c-0.6,0.6-1.4,0.8-2.4,0.8H23.4z M23.4,27.8h1.4c0.4,0,0.7-0.1,0.9-0.4c0.2-0.3,0.3-0.6,0.3-1.1c0-0.5-0.1-0.9-0.3-1.2c-0.2-0.3-0.5-0.4-0.9-0.4h-1.4V27.8z M15,29.5V33h-2V23h3.4c1,0,1.8,0.3,2.4,0.9c0.6,0.6,0.9,1.4,0.9,2.4s-0.3,1.7-0.9,2.3c-0.6,0.6-1.4,0.8-2.4,0.8H15z M15,27.8h1.4c0.4,0,0.7-0.1,0.9-0.4c0.2-0.3,0.3-0.6,0.3-1.1c0-0.5-0.1-0.9-0.3-1.2c-0.2-0.3-0.5-0.4-0.9-0.4H15V27.8z M36,24.7h-2.5V33h-2v-8.3h-2.4V23H36V24.7z"/></svg>