<?xml version="1.0" encoding="iso-8859-1"?><!-- Generator: Adobe Illustrator 22.1.0, SVG Export Plug-In . SVG Version: 6.00 Build 0)  --><svg xmlns="http://www.w3.org/2000/svg" xmlns:xlink="http://www.w3.org/1999/xlink" viewBox="0 0 48 48" width="48px" height="48px"><polygon style="fill:#90CAF9;" points="41,45 9,45 9,3 31,3 41,13 "/><polygon style="fill:#E1F5FE;" points="39.5,14 30,14 30,4.5 "/><g><path style="fill:#1976D2;" d="M12.733,32.995v-9.854h2.599l1.861,7.126l1.854-7.126h2.593v9.854h-1.99v-2.666l0.183-4.108   l-1.969,6.774H16.51l-1.97-6.774l0.183,4.108v2.666H12.733z"/><path style="fill:#1976D2;" d="M23.243,32.995v-9.854h1.989v4.297l0.63-1.063l1.834-3.234h2.437l-2.822,4.331l2.869,5.522h-2.362   l-1.8-3.804l-0.785,0.988v2.815H23.243z"/><path style="fill:#1976D2;" d="M30.262,23.142h2.206l1.651,7.146l1.657-7.146h2.221l-2.843,9.854h-2.071L30.262,23.142z"/></g></svg>