<?xml version="1.0" encoding="UTF-8" standalone="no"?>
<svg
   viewBox="0 0 48 48"
   width="18px"
   height="18px"
   version="1.1"
   id="svg3"
   sodipodi:docname="file-explorer.svg"
   inkscape:version="1.4.2 (f4327f4, 2025-05-13)"
   xmlns:inkscape="http://www.inkscape.org/namespaces/inkscape"
   xmlns:sodipodi="http://sodipodi.sourceforge.net/DTD/sodipodi-0.dtd"
   xmlns="http://www.w3.org/2000/svg"
   xmlns:svg="http://www.w3.org/2000/svg">
  <defs
     id="defs3" />
  <sodipodi:namedview
     id="namedview3"
     pagecolor="#ffffff"
     bordercolor="#000000"
     borderopacity="0.25"
     inkscape:showpageshadow="2"
     inkscape:pageopacity="0.0"
     inkscape:pagecheckerboard="0"
     inkscape:deskcolor="#d1d1d1"
     inkscape:zoom="49.166667"
     inkscape:cx="9"
     inkscape:cy="9"
     inkscape:window-width="1920"
     inkscape:window-height="1129"
     inkscape:window-x="1912"
     inkscape:window-y="-8"
     inkscape:window-maximized="1"
     inkscape:current-layer="svg3" />
  <path
     fill="#ffa000"
     d="M 40,11.240678 H 22 l -4,-4 H 8 c -2.2,0 -4,1.8 -4,4 v 8 h 40 v -4 c 0,-2.2 -1.8,-4 -4,-4 z"
     id="path1" />
  <path
     fill="#ffca28"
     d="M 40,11.240678 H 8 c -2.2,0 -4,1.8 -4,4 v 20 c 0,2.2 1.8,4 4,4 h 32 c 2.2,0 4,-1.8 4,-4 v -20 c 0,-2.2 -1.8,-4 -4,-4 z"
     id="path2" />
  <path
     fill="#39a9f4"
     d="m 10,24.240678 v 17 h 8 v -9 h 12 v 9 h 8 v -17 z"
     id="path3" />
</svg>
