<?xml version="1.0" encoding="utf-8"?><!-- Generator: Adobe Illustrator 15.0.0, SVG Export Plug-In . SVG Version: 6.00 Build 0)  --><!DOCTYPE svg PUBLIC "-//W3C//DTD SVG 1.1//EN" "http://www.w3.org/Graphics/SVG/1.1/DTD/svg11.dtd"><svg xmlns="http://www.w3.org/2000/svg" xmlns:xlink="http://www.w3.org/1999/xlink" viewBox="0 0 48 48" width="48px" height="48px"><polygon fill="#F44336" points="40,45 8,45 8,3 30,3 40,13 "/><polygon fill="#FFEBEE" points="38.5,14 29,14 29,4.5 "/><g><path fill="#FFEBEE" d="M14.425,23.047l1.88,7.198l1.873-7.198h2.625V33h-2.017v-2.693l0.185-4.149L16.981,33h-1.367l-1.989-6.843l0.185,4.149V33H11.8v-9.953H14.425z"/><path fill="#FFEBEE" d="M29.423,28.919c0,1.335-0.315,2.372-0.946,3.11c-0.632,0.738-1.508,1.107-2.629,1.107c-1.117,0-1.994-0.366-2.632-1.097c-0.638-0.732-0.961-1.756-0.971-3.073v-1.702c0-1.367,0.317-2.435,0.95-3.203c0.633-0.768,1.513-1.151,2.639-1.151c1.107,0,1.98,0.377,2.618,1.132c0.638,0.754,0.962,1.813,0.971,3.175V28.919z M27.406,27.251c0-0.897-0.127-1.565-0.383-2.003s-0.652-0.656-1.189-0.656c-0.533,0-0.927,0.211-1.183,0.632c-0.255,0.422-0.387,1.063-0.396,1.925v1.771c0,0.87,0.13,1.512,0.39,1.924c0.26,0.413,0.66,0.619,1.203,0.619c0.523,0,0.914-0.201,1.169-0.605c0.255-0.402,0.386-1.028,0.39-1.876V27.251z"/><path fill="#FFEBEE" d="M33.955,30.266l1.675-7.219h2.242L35.001,33h-2.092l-2.851-9.953h2.229L33.955,30.266z"/></g></svg>