<?xml version="1.0" encoding="utf-8"?><!-- Generator: Adobe Illustrator 15.0.0, SVG Export Plug-In . SVG Version: 6.00 Build 0)  --><!DOCTYPE svg PUBLIC "-//W3C//DTD SVG 1.1//EN" "http://www.w3.org/Graphics/SVG/1.1/DTD/svg11.dtd"><svg xmlns="http://www.w3.org/2000/svg" xmlns:xlink="http://www.w3.org/1999/xlink" viewBox="0 0 48 48" width="48px" height="48px"><polygon fill="#FF5722" points="40,45 8,45 8,3 30,3 40,13 "/><polygon fill="#FBE9E7" points="38.5,14 29,14 29,4.5 "/><g><path fill="#FFEBEE" d="M15.81,29.5V33H13.8v-9.953h3.391c0.984,0,1.77,0.306,2.355,0.916s0.878,1.403,0.878,2.379s-0.29,1.745-0.868,2.311S18.175,29.5,17.149,29.5H15.81z M15.81,27.825h1.381c0.383,0,0.679-0.125,0.889-0.376s0.314-0.615,0.314-1.094c0-0.497-0.107-0.892-0.321-1.187c-0.214-0.293-0.501-0.442-0.861-0.447H15.81V27.825z"/><path fill="#FFEBEE" d="M21.764,33v-9.953h2.632c1.162,0,2.089,0.369,2.778,1.107c0.691,0.738,1.043,1.75,1.057,3.035v1.613c0,1.308-0.346,2.335-1.035,3.079C26.504,32.628,25.553,33,24.341,33H21.764z M23.773,24.722v6.61h0.602c0.67,0,1.142-0.177,1.415-0.53c0.273-0.353,0.417-0.962,0.431-1.828v-1.729c0-0.93-0.13-1.578-0.39-1.944c-0.26-0.367-0.702-0.56-1.326-0.578H23.773z"/><path fill="#FFEBEE" d="M34.807,28.939h-3.124V33h-2.01v-9.953h5.51v1.675h-3.5v2.55h3.124V28.939z"/></g></svg>