<?xml version="1.0" encoding="utf-8"?><!-- Generator: Adobe Illustrator 18.1.1, SVG Export Plug-In . SVG Version: 6.00 Build 0)  --><svg xmlns="http://www.w3.org/2000/svg" xmlns:xlink="http://www.w3.org/1999/xlink" viewBox="0 0 48 48" width="50px" height="50px"><g><path fill="#FFA000" d="M40,12H22l-4-4H8c-2.2,0-4,1.8-4,4v8h40v-4C44,13.8,42.2,12,40,12z"/></g><g><path fill="#FFCA28" d="M40,12H8c-2.2,0-4,1.8-4,4v20c0,2.2,1.8,4,4,4h32c2.2,0,4-1.8,4-4V16C44,13.8,42.2,12,40,12z"/></g><g><polygon fill="#1565C0" points="24,32.6 18.5,26 29.5,26 "/><rect x="22" y="16" fill="#1565C0" width="4" height="2"/><rect x="22" y="19" fill="#1565C0" width="4" height="2"/><rect x="22" y="22" fill="#1565C0" width="4" height="5.5"/><rect x="15" y="34" fill="#1565C0" width="18" height="2"/></g></svg>