<?xml version="1.0" encoding="utf-8"?><!-- Generator: Adobe Illustrator 18.1.1, SVG Export Plug-In . SVG Version: 6.00 Build 0)  --><svg xmlns="http://www.w3.org/2000/svg" xmlns:xlink="http://www.w3.org/1999/xlink" viewBox="0 0 48 48" width="50px" height="50px"><g><path fill="#FFA000" d="M40,12H22l-4-4H8c-2.2,0-4,1.8-4,4v8h40v-4C44,13.8,42.2,12,40,12z"/></g><g><path fill="#FFCA28" d="M40,12H8c-2.2,0-4,1.8-4,4v20c0,2.2,1.8,4,4,4h32c2.2,0,4-1.8,4-4V16C44,13.8,42.2,12,40,12z"/></g><g><path fill="#3F51B5" d="M34,18H14v16h20V18z M23,33v-2h2v2H23z M27,33v-2h2v2H27z M31,33v-2h2v2H31z M19,33v-2h2v2H19z M15,33v-2h2v2H15z M23,21v-2h2v2H23z M27,21v-2h2v2H27z M31,21v-2h2v2H31z M19,21v-2h2v2H19z M15,21v-2h2v2H15z"/></g></svg>