<?xml version="1.0" encoding="iso-8859-1"?><!-- Generator: Adobe Illustrator 22.1.0, SVG Export Plug-In . SVG Version: 6.00 Build 0)  --><svg xmlns="http://www.w3.org/2000/svg" xmlns:xlink="http://www.w3.org/1999/xlink" viewBox="0 0 48 48" width="18px" height="18px"><circle style="fill:#455A64;" cx="24" cy="24" r="5"/><path style="fill:#607D8B;" d="M44.122,21.753l-3.373-0.562c-0.181-1.084-0.463-2.131-0.838-3.135l2.639-2.173  c0.397-0.326,0.498-0.89,0.241-1.336l-1.21-2.096c-0.256-0.445-0.798-0.638-1.277-0.458l-3.186,1.193  c-0.693-0.84-1.466-1.612-2.306-2.306l1.193-3.184c0.181-0.481-0.015-1.021-0.458-1.277l-2.096-1.21  c-0.445-0.256-1.01-0.153-1.336,0.241L29.945,8.09c-1.005-0.376-2.052-0.658-3.136-0.839l-0.562-3.373  C26.161,3.372,25.724,3,25.21,3h-2.421c-0.512,0-0.951,0.372-1.035,0.878l-0.562,3.373c-1.084,0.181-2.131,0.463-3.135,0.838  l-2.173-2.639c-0.326-0.397-0.89-0.5-1.336-0.242l-2.096,1.21c-0.445,0.256-0.638,0.798-0.458,1.277l1.193,3.186  c-0.84,0.693-1.613,1.466-2.306,2.306l-3.186-1.193c-0.479-0.181-1.021,0.013-1.277,0.458l-1.21,2.096  c-0.258,0.445-0.155,1.01,0.241,1.336l2.639,2.173c-0.375,1.004-0.658,2.051-0.838,3.135l-3.373,0.562  C3.372,21.839,3,22.276,3,22.79v2.421c0,0.512,0.372,0.951,0.878,1.035l3.373,0.562c0.181,1.084,0.463,2.131,0.838,3.135  l-2.639,2.173c-0.397,0.326-0.498,0.89-0.241,1.336l1.21,2.096c0.256,0.445,0.798,0.638,1.277,0.458l3.186-1.193  c0.693,0.84,1.466,1.612,2.306,2.306l-1.193,3.184c-0.181,0.481,0.015,1.021,0.458,1.277l2.096,1.21  c0.445,0.256,1.01,0.153,1.336-0.242l2.171-2.637c1.005,0.376,2.052,0.658,3.136,0.839l0.562,3.373  C21.839,44.628,22.276,45,22.79,45h2.421c0.512,0,0.951-0.372,1.035-0.878l0.562-3.373c1.084-0.181,2.131-0.463,3.135-0.838  l2.173,2.639c0.326,0.397,0.89,0.498,1.336,0.242l2.096-1.21c0.445-0.256,0.638-0.798,0.458-1.277l-1.193-3.186  c0.84-0.693,1.612-1.466,2.306-2.306l3.184,1.193c0.481,0.181,1.021-0.015,1.277-0.458l1.21-2.096  c0.256-0.445,0.153-1.01-0.242-1.336l-2.637-2.171c0.376-1.005,0.658-2.052,0.839-3.136l3.373-0.562  C44.628,26.161,45,25.724,45,25.21v-2.421C45,22.276,44.628,21.837,44.122,21.753z M24,36c-6.6,0-12-5.4-12-12c0-6.6,5.4-12,12-12  s12,5.4,12,12C36,30.6,30.6,36,24,36z"/><path style="fill:#455A64;" d="M24,13c6.065,0,11,4.935,11,11s-4.935,11-11,11s-11-4.935-11-11S17.935,13,24,13 M24,11  c-7.15,0-13,5.85-13,13s5.85,13,13,13s13-5.85,13-13S31.15,11,24,11L24,11z"/><path style="fill:#455A64;" d="M26,22.852v-10.67c-0.15-0.026-0.301-0.05-0.453-0.07c-0.145-0.019-0.288-0.042-0.435-0.055  C24.745,12.023,24.375,12,24,12s-0.745,0.023-1.112,0.057c-0.146,0.014-0.29,0.036-0.435,0.055c-0.152,0.02-0.303,0.044-0.453,0.07  V22.84l-9.23,5.338c0.475,1.266,1.146,2.438,1.996,3.462l9.229-5.331l9.239,5.331c0.85-1.024,1.521-2.196,1.996-3.462L26,22.852z"/></svg>