<svg xmlns="http://www.w3.org/2000/svg"  viewBox="0 0 48 48" width="18px" height="18px"><path fill="#78909C" d="M6,28v10c0,2.209,1.791,4,4,4h28c2.209,0,4-1.791,4-4V28H6z"/><path fill="#455A64" d="M42,28c0,2.209-1.791,4-4,4H10c-2.209,0-4-1.791-4-4l3-18c0.219-2.094,1.791-4,4-4h22c2.209,0,3.688,1.75,4,4L42,28z"/><path fill="#64DD17" d="M35 35A2 2 0 1 0 35 39A2 2 0 1 0 35 35Z"/><path fill="#BBDEFB" d="M24,11c-6.627,0-12,3.134-12,7c0,3.865,5.373,7,12,7c6.627,0,12-3.135,12-7C36,14.134,30.627,11,24,11z M24,19.555c-1.473,0-2.667-0.695-2.667-1.555s1.194-1.556,2.667-1.556s2.666,0.696,2.666,1.556S25.473,19.555,24,19.555z"/></svg>