<?xml version="1.0" encoding="utf-8"?><!-- Generator: Adobe Illustrator 21.0.2, SVG Export Plug-In . SVG Version: 6.00 Build 0)  --><svg xmlns="http://www.w3.org/2000/svg" xmlns:xlink="http://www.w3.org/1999/xlink" viewBox="0 0 48 48" width="18px" height="18px"><g id="surface1"><path style="fill:#455A64;" d="M6,10c0-2.2,1.8-4,4-4h28c2.2,0,4,1.8,4,4v28c0,2.2-1.8,4-4,4H10c-2.2,0-4-1.8-4-4V10z"/><polygon style="fill:#AEEA00;" points="25.8,40.6 21.8,18.7 17.9,34.4 15.8,24.7 15.7,25 6,25 6,23 14.3,23 16.2,17.3 18.1,25.6    22.2,9.3 26.2,31.4 30,17.2 32.3,25.3 33.4,23 42,23 42,25 34.6,25 31.7,30.7 30,24.8  "/></g></svg>