<svg xmlns="http://www.w3.org/2000/svg"  viewBox="0 0 48 48" width="18px" height="18px"><path fill="#FFA000" d="M41.456 34.385L23.778 16.707 16.707 23.778 21.93 29 26 29 26 33 30 33 30 37 34 37 34 41 40.46 41 42.87 38.628z"/><path fill="#FFA000" d="M8.929,8.929c-3.905,3.906-3.905,10.236,0,14.143c3.906,3.905,10.236,3.905,14.143,0c3.905-3.906,3.905-10.236,0-14.143C19.165,5.023,12.835,5.023,8.929,8.929z M15.121,15.121c-1.171,1.171-3.071,1.171-4.243,0c-1.171-1.171-1.171-3.071,0-4.243c1.172-1.171,3.072-1.171,4.243,0C16.292,12.05,16.292,13.95,15.121,15.121z"/><g><path fill="#D67C05" d="M32.324 17.996H34.324V42.995999999999995H32.324z" transform="rotate(-45.001 33.324 30.497)"/><path fill="#D67C05" d="M27.239,20.167l-1.586-1.585c-0.438,1.644-1.293,3.199-2.582,4.489c-1.29,1.29-2.846,2.145-4.489,2.582l1.591,1.59c1.599-0.592,3.07-1.516,4.313-2.758C25.748,23.223,26.657,21.743,27.239,20.167z"/></g></svg>