<svg xmlns="http://www.w3.org/2000/svg" xmlns:xlink="http://www.w3.org/1999/xlink" viewBox="0,0,256,256" width="48px" height="48px" fill-rule="nonzero"><g fill="none" fill-rule="nonzero" stroke="none" stroke-width="1" stroke-linecap="butt" stroke-linejoin="miter" stroke-miterlimit="10" stroke-dasharray="" stroke-dashoffset="0" font-family="none" font-weight="none" font-size="none" text-anchor="none" style="mix-blend-mode: normal"><g transform="scale(5.33333,5.33333)"><path d="M30,41l-4,4h-4l-4,-4v-20h12v8l-2,2l2,2v2l-2,2l2,2z" fill="#ffa000"></path><path d="M38,7.8c-0.5,-1.8 -2,-3.1 -3.7,-3.6c-2.4,-0.5 -6.1,-1.2 -10.3,-1.2c-4.2,0 -7.9,0.7 -10.3,1.2c-1.7,0.5 -3.2,1.8 -3.7,3.6c-0.5,1.7 -1,4.1 -1,6.7c0,2.6 0.5,5 1,6.7c0.5,1.8 1.9,3.1 3.7,3.5c2.4,0.6 6.1,1.3 10.3,1.3c4.2,0 7.9,-0.7 10.3,-1.2c1.8,-0.4 3.2,-1.8 3.7,-3.5c0.5,-1.7 1,-4.1 1,-6.7c0,-2.7 -0.5,-5.1 -1,-6.8zM29,13h-10c-1.1,0 -2,-0.9 -2,-2v-2c0,-0.6 3.1,-1 7,-1c3.9,0 7,0.4 7,1v2c0,1.1 -0.9,2 -2,2z" fill="#ffa000"></path><path d="M23,26h2v19h-2z" fill="#d68600"></path></g></g><g fill="none" fill-rule="nonzero" stroke="none" stroke-width="1" stroke-linecap="butt" stroke-linejoin="miter" stroke-miterlimit="10" stroke-dasharray="" stroke-dashoffset="0" font-family="none" font-weight="none" font-size="none" text-anchor="none" style="mix-blend-mode: normal"><g transform="translate(131.66667,147.66667) scale(5.33333,5.33333)" id="overlay"><path d="M20,10c0,5.5 -4.5,10 -10,10c-5.5,0 -10,-4.5 -10,-10c0,-5.5 4.5,-10 10,-10c5.5,0 10,4.5 10,10" fill="#ff3d00"></path><g fill="#ffffff"><path transform="translate(10,7.5)" d="M-1.5,4.5v-9h3v9z"></path><path transform="translate(10,15.5)" d="M-1.5,1.5v-3h3v3z"></path></g></g></g></svg>