<svg xmlns="http://www.w3.org/2000/svg"  viewBox="0 0 48 48" width="18px" height="18px"><path fill="#546e7a" d="M25,21h-2c0-7.4,4.1-7.7,7.4-7.9C33.6,12.8,36,12.6,36,7h2c0,7.5-4.1,7.8-7.4,8 C27.3,15.3,25,15.5,25,21z"/><path fill="#8cbcd6" d="M2,21h44v20H2V21z"/><path fill="#e1f5fe" d="M4 23h4v4H4V23zM10 23h4v4h-4V23zM16 23h4v4h-4V23zM22 23h4v4h-4V23zM28 23h4v4h-4V23zM34 23h4v4h-4V23zM40 23h4v4h-4V23zM4 35h4v4H4V35zM10 35h4v4h-4V35zM16 35h16v4H16V35zM34 35h4v4h-4V35zM40 35h4v4h-4V35zM4 29h7v4H4V29zM13 29h4v4h-4V29zM19 29h4v4h-4V29zM25 29h4v4h-4V29zM31 29h4v4h-4V29zM37 29h7v4h-7V29z"/></svg>