<svg xmlns="http://www.w3.org/2000/svg"  viewBox="0 0 48 48" width="18px" height="18px"><path fill="#cfd8dc" d="M39,6H9C7.343,6,6,7.344,6,9v33l8.556-8H39c1.656,0,3-1.344,3-3V9C42,7.344,40.656,6,39,6z"/><path fill="#2196f3" d="M20,6H9C7.343,6,6,7.344,6,9v33l8.556-8H27L20,6z"/><path fill="#546e7a" d="M28.064,24.223c0.061-0.031,4.994-3.219,7.936-9.115L37.79,16c-3.082,6.25-7.457,9.292-8.509,10L28.064,24.223z"/><path fill="#546e7a" d="M37 26c0 0-5-2.583-7.769-6.998L31 18c2.333 3.833 6.981 6.26 6.981 6.26L37 26zM27 15H39V17H27z"/><path fill="#546e7a" d="M32 13H34V17H32z"/><path fill="#fff" d="M12 22H18V24H12z"/><path fill="#fff" d="M12.109 26L15 17 17.906 26 20.016 26 16 14 14 14 10 26z"/></svg>