<svg xmlns="http://www.w3.org/2000/svg" xmlns:xlink="http://www.w3.org/1999/xlink" viewBox="0,0,256,256" width="18px" height="18px" fill-rule="nonzero"><g fill="none" fill-rule="nonzero" stroke="none" stroke-width="1" stroke-linecap="butt" stroke-linejoin="miter" stroke-miterlimit="10" stroke-dasharray="" stroke-dashoffset="0" font-family="none" font-weight="none" font-size="none" text-anchor="none" style="mix-blend-mode: normal"><g transform="scale(5.33333,5.33333)"><path d="M29,31v0c0,0 -1,4 -5,4c-4,0 -5,-4 -5,-4c0,0 -11,1.986 -11,13h32c0,-10.975 -11,-13 -11,-13" fill="#4fc3f7"></path><path d="M24,37c-5,0 -5,-6 -5,-6v-6h10v6c0,0 0,6 -5,6z" fill="#ff9800"></path><path d="M35,19c0,1.105 -0.895,2 -2,2c-1.105,0 -2,-0.895 -2,-2c0,-1.105 0.895,-2 2,-2c1.105,0 2,0.895 2,2M17,19c0,1.105 -0.895,2 -2,2c-1.105,0 -2,-0.895 -2,-2c0,-1.105 0.895,-2 2,-2c1.105,0 2,0.895 2,2" fill="#ffa726"></path><path d="M33,13c0,-7.635 -18,-4.971 -18,0v7c0,4.971 4.029,9 9,9c4.971,0 9,-4.029 9,-9z" fill="#ffb74d"></path><path d="M24,4c-6.075,0 -10,4.925 -10,11v2.284l2,1.716v-5l12,-4l4,4v5l2,-1.741v-2.259c0,-4.025 -1.038,-8.015 -6,-9l-1,-2z" fill="#424242"></path><path d="M27,19c0,0.552 0.448,1 1,1c0.552,0 1,-0.448 1,-1c0,-0.552 -0.448,-1 -1,-1c-0.552,0 -1,0.448 -1,1M19,19c0,0.552 0.448,1 1,1c0.552,0 1,-0.448 1,-1c0,-0.552 -0.448,-1 -1,-1c-0.552,0 -1,0.448 -1,1" fill="#784719"></path><path d="M24,37c5,0 6.745,-3.93 6.951,-5.428c-1.157,-0.424 -1.951,-0.572 -1.951,-0.572c0,0 -1,4 -5,4c-4,0 -5,-4 -5,-4c0,0 -0.794,0.146 -1.952,0.566c0.204,1.495 1.952,5.434 6.952,5.434z" fill="#01579b"></path></g></g><g fill="none" fill-rule="nonzero" stroke="none" stroke-width="1" stroke-linecap="butt" stroke-linejoin="miter" stroke-miterlimit="10" stroke-dasharray="" stroke-dashoffset="0" font-family="none" font-weight="none" font-size="none" text-anchor="none" style="mix-blend-mode: normal"><g transform="translate(142.33333,147.66667) scale(5.33333,5.33333)" id="overlay"><path d="M14.2,20h-12.4c-1,0 -1.8,-0.8 -1.8,-1.8v-8.4c0,-1 0.8,-1.8 1.8,-1.8h12.4c1,0 1.8,0.8 1.8,1.8v8.4c0,1 -0.8,1.8 -1.8,1.8" fill="#fb8c00"></path><path d="M10,14c0,1.1 -0.9,2 -2,2c-1.1,0 -2,-0.9 -2,-2c0,-1.1 0.9,-2 2,-2c1.1,0 2,0.9 2,2" fill="#c76e00"></path><path d="M13,8h-2v-3c0,-0.5 -0.2,-3 -3,-3c-2.8,0 -3,2.5 -3,3v3h-2v-3c0,-1.7 1,-5 5,-5c4,0 5,3.3 5,5z" fill="#37474f"></path></g></g></svg>