<svg xmlns="http://www.w3.org/2000/svg"  viewBox="0 0 48 48" width="18px" height="18px"><path fill="#4CAF50" d="M42,11H6c-2.2,0-4,1.8-4,4v16h44V15C46,12.8,44.2,11,42,11z"/><path fill="#37474F" d="M2,31v4c0,2.2,1.8,4,4,4h17v-5c0-0.6,0.4-1,1-1c0.6,0,1,0.4,1,1v5h17c2.2,0,4-1.8,4-4v-4H2z"/><path fill="#FF9800" d="M7 33H9V39H7zM11 33H13V39H11zM15 33H17V39H15zM19 33H21V39H19zM27 33H29V39H27zM31 33H33V39H31zM35 33H37V39H35zM39 33H41V39H39z"/><path fill="#37474F" d="M20 17H28V27H20zM32 17H40V27H32zM8 17H16V27H8z"/></svg>