<svg xmlns="http://www.w3.org/2000/svg"  viewBox="0 0 48 48" width="18px" height="18px"><path fill="#43A047" d="M6,8v32c0,1.1,0.9,2,2,2h32c1.1,0,2-0.9,2-2V8c0-1.1-0.9-2-2-2H8C6.9,6,6,6.9,6,8z"/><path fill="#FFEB3B" d="M15,10c0,0.6-0.4,1-1,1s-1-0.4-1-1s0.4-1,1-1S15,9.4,15,10z M18,9c-0.6,0-1,0.4-1,1s0.4,1,1,1s1-0.4,1-1S18.6,9,18,9z M22,9c-0.6,0-1,0.4-1,1s0.4,1,1,1s1-0.4,1-1S22.6,9,22,9z M26,9c-0.6,0-1,0.4-1,1s0.4,1,1,1s1-0.4,1-1S26.6,9,26,9z M30,9c-0.6,0-1,0.4-1,1s0.4,1,1,1s1-0.4,1-1S30.6,9,30,9z M34,9c-0.6,0-1,0.4-1,1s0.4,1,1,1s1-0.4,1-1S34.6,9,34,9z M10,13c-0.6,0-1,0.4-1,1s0.4,1,1,1s1-0.4,1-1S10.6,13,10,13z M14,13c-0.6,0-1,0.4-1,1s0.4,1,1,1s1-0.4,1-1S14.6,13,14,13z M18,13c-0.6,0-1,0.4-1,1s0.4,1,1,1s1-0.4,1-1S18.6,13,18,13z M22,13c-0.6,0-1,0.4-1,1s0.4,1,1,1s1-0.4,1-1S22.6,13,22,13z M26,13c-0.6,0-1,0.4-1,1s0.4,1,1,1s1-0.4,1-1S26.6,13,26,13z M30,13c-0.6,0-1,0.4-1,1s0.4,1,1,1s1-0.4,1-1S30.6,13,30,13z M34,13c-0.6,0-1,0.4-1,1s0.4,1,1,1s1-0.4,1-1S34.6,13,34,13z M38,13c-0.6,0-1,0.4-1,1s0.4,1,1,1s1-0.4,1-1S38.6,13,38,13z M10,17c-0.6,0-1,0.4-1,1s0.4,1,1,1s1-0.4,1-1S10.6,17,10,17z M14,17c-0.6,0-1,0.4-1,1s0.4,1,1,1s1-0.4,1-1S14.6,17,14,17z M34,17c-0.6,0-1,0.4-1,1s0.4,1,1,1s1-0.4,1-1S34.6,17,34,17z M10,21c-0.6,0-1,0.4-1,1s0.4,1,1,1s1-0.4,1-1S10.6,21,10,21z M14,21c-0.6,0-1,0.4-1,1s0.4,1,1,1s1-0.4,1-1S14.6,21,14,21z M34,21c-0.6,0-1,0.4-1,1s0.4,1,1,1s1-0.4,1-1S34.6,21,34,21z M38,17c-0.6,0-1,0.4-1,1s0.4,1,1,1s1-0.4,1-1S38.6,17,38,17z M38,21c-0.6,0-1,0.4-1,1s0.4,1,1,1s1-0.4,1-1S38.6,21,38,21z M10,25c-0.6,0-1,0.4-1,1s0.4,1,1,1s1-0.4,1-1S10.6,25,10,25z M14,25c-0.6,0-1,0.4-1,1s0.4,1,1,1s1-0.4,1-1S14.6,25,14,25z M34,25c-0.6,0-1,0.4-1,1s0.4,1,1,1s1-0.4,1-1S34.6,25,34,25z M10,29c-0.6,0-1,0.4-1,1s0.4,1,1,1s1-0.4,1-1S10.6,29,10,29z M14,29c-0.6,0-1,0.4-1,1s0.4,1,1,1s1-0.4,1-1S14.6,29,14,29z M34,29c-0.6,0-1,0.4-1,1s0.4,1,1,1s1-0.4,1-1S34.6,29,34,29z M38,25c-0.6,0-1,0.4-1,1s0.4,1,1,1s1-0.4,1-1S38.6,25,38,25z M38,29c-0.6,0-1,0.4-1,1s0.4,1,1,1s1-0.4,1-1S38.6,29,38,29z M10,33c-0.6,0-1,0.4-1,1s0.4,1,1,1s1-0.4,1-1S10.6,33,10,33z M14,33c-0.6,0-1,0.4-1,1s0.4,1,1,1s1-0.4,1-1S14.6,33,14,33z M18,33c-0.6,0-1,0.4-1,1s0.4,1,1,1s1-0.4,1-1S18.6,33,18,33z M22,33c-0.6,0-1,0.4-1,1s0.4,1,1,1s1-0.4,1-1S22.6,33,22,33z M26,33c-0.6,0-1,0.4-1,1s0.4,1,1,1s1-0.4,1-1S26.6,33,26,33z M30,33c-0.6,0-1,0.4-1,1s0.4,1,1,1s1-0.4,1-1S30.6,33,30,33z M34,33c-0.6,0-1,0.4-1,1s0.4,1,1,1s1-0.4,1-1S34.6,33,34,33z M14,37c-0.6,0-1,0.4-1,1s0.4,1,1,1s1-0.4,1-1S14.6,37,14,37z M18,37c-0.6,0-1,0.4-1,1s0.4,1,1,1s1-0.4,1-1S18.6,37,18,37z M22,37c-0.6,0-1,0.4-1,1s0.4,1,1,1s1-0.4,1-1S22.6,37,22,37z M26,37c-0.6,0-1,0.4-1,1s0.4,1,1,1s1-0.4,1-1S26.6,37,26,37z M30,37c-0.6,0-1,0.4-1,1s0.4,1,1,1s1-0.4,1-1S30.6,37,30,37z M34,37c-0.6,0-1,0.4-1,1s0.4,1,1,1s1-0.4,1-1S34.6,37,34,37z M38,33c-0.6,0-1,0.4-1,1s0.4,1,1,1s1-0.4,1-1S38.6,33,38,33z"/><path fill="#37474F" d="M29,30H19c-0.5,0-1-0.5-1-1V19c0-0.5,0.5-1,1-1h10c0.5,0,1,0.5,1,1v10C30,29.5,29.5,30,29,30z"/></svg>