<svg xmlns="http://www.w3.org/2000/svg" xmlns:xlink="http://www.w3.org/1999/xlink" viewBox="0,0,256,256" width="18px" height="18px" fill-rule="nonzero"><g fill="none" fill-rule="nonzero" stroke="none" stroke-width="1" stroke-linecap="butt" stroke-linejoin="miter" stroke-miterlimit="10" stroke-dasharray="" stroke-dashoffset="0" font-family="none" font-weight="none" font-size="none" text-anchor="none" style="mix-blend-mode: normal"><g transform="scale(5.33333,5.33333)"><path d="M6,8h36v26h-36z" fill="#546e7a"></path><path d="M8,10h32v21h-32z" fill="#bbdefb"></path><path d="M21,34h6v3h-6zM33,37c-2,0 -16,0 -18,0c-2,0 -2,2 -2,2v1h22v-1c0,0 0,-2 -2,-2z" fill="#455a64"></path></g></g><g fill="#526b77" fill-rule="nonzero" stroke="none" stroke-width="1" stroke-linecap="butt" stroke-linejoin="miter" stroke-miterlimit="10" stroke-dasharray="" stroke-dashoffset="0" font-family="none" font-weight="none" font-size="none" text-anchor="none" style="mix-blend-mode: normal"><g><path d="M117.435,113.69833l-10.78,-2.67l3.93,-34.69h38.25v11.3h-27.14l-1.68,14.67c3.21333,-1.72 6.63333,-2.58 10.26,-2.58v0c6.5,0 11.59333,2.01667 15.28,6.05c3.68667,4.02667 5.53,9.66667 5.53,16.92v0c0,4.40667 -0.93,8.35333 -2.79,11.84c-1.85333,3.48 -4.51667,6.18 -7.99,8.1c-3.46667,1.92667 -7.56,2.89 -12.28,2.89v0c-4.12667,0 -7.95333,-0.83667 -11.48,-2.51c-3.53333,-1.67333 -6.32333,-4.02333 -8.37,-7.05c-2.04667,-3.03333 -3.13333,-6.48667 -3.26,-10.36v0h13.41c0.28,2.84 1.27,5.05 2.97,6.63c1.70667,1.58 3.93333,2.37 6.68,2.37v0c3.06667,0 5.42667,-1.10333 7.08,-3.31c1.66,-2.2 2.49,-5.31667 2.49,-9.35v0c0,-3.87333 -0.95333,-6.84333 -2.86,-8.91c-1.90667,-2.06 -4.61,-3.09 -8.11,-3.09v0c-3.22,0 -5.83,0.84333 -7.83,2.53v0z"></path></g></g></svg>