<svg xmlns="http://www.w3.org/2000/svg" xmlns:xlink="http://www.w3.org/1999/xlink" viewBox="0,0,256,256" width="18px" height="18px" fill-rule="nonzero"><g fill="none" fill-rule="nonzero" stroke="none" stroke-width="1" stroke-linecap="butt" stroke-linejoin="miter" stroke-miterlimit="10" stroke-dasharray="" stroke-dashoffset="0" font-family="none" font-weight="none" font-size="none" text-anchor="none" style="mix-blend-mode: normal"><g transform="scale(5.33333,5.33333)"><path d="M6,8h36v26h-36z" fill="#546e7a"></path><path d="M8,10h32v21h-32z" fill="#bbdefb"></path><path d="M21,34h6v3h-6zM33,37c-2,0 -16,0 -18,0c-2,0 -2,2 -2,2v1h22v-1c0,0 0,-2 -2,-2z" fill="#455a64"></path></g></g><g fill="#526b77" fill-rule="nonzero" stroke="none" stroke-width="1" stroke-linecap="butt" stroke-linejoin="miter" stroke-miterlimit="10" stroke-dasharray="" stroke-dashoffset="0" font-family="none" font-weight="none" font-size="none" text-anchor="none" style="mix-blend-mode: normal"><g><path d="M137.285,117.91833v0c-3.53333,3.46667 -7.66,5.2 -12.38,5.2v0c-6.02667,0 -10.85333,-2.07 -14.48,-6.21c-3.62667,-4.14 -5.44,-9.72667 -5.44,-16.76v0c0,-4.46667 0.97667,-8.56667 2.93,-12.3c1.95333,-3.73333 4.68,-6.64 8.18,-8.72c3.5,-2.08 7.43667,-3.12 11.81,-3.12v0c4.5,0 8.5,1.12667 12,3.38c3.5,2.24667 6.22,5.48 8.16,9.7c1.94,4.22 2.92333,9.05 2.95,14.49v0v5.01c0,11.37333 -2.82667,20.31 -8.48,26.81c-5.66,6.5 -13.67667,9.97 -24.05,10.41v0l-3.33,0.05v-11.3l3,-0.05c11.78667,-0.52667 18.16333,-6.05667 19.13,-16.59zM128.235,112.75833v0c2.18667,0 4.07,-0.56 5.65,-1.68c1.58,-1.12667 2.77667,-2.48667 3.59,-4.08v0v-5.58c0,-4.59333 -0.87667,-8.15667 -2.63,-10.69c-1.74667,-2.53333 -4.09,-3.8 -7.03,-3.8v0c-2.72,0 -4.95333,1.24333 -6.7,3.73c-1.75333,2.48667 -2.63,5.60333 -2.63,9.35v0c0,3.72 0.85333,6.77667 2.56,9.17c1.7,2.38667 4.09667,3.58 7.19,3.58z"></path></g></g></svg>