<svg xmlns="http://www.w3.org/2000/svg" xmlns:xlink="http://www.w3.org/1999/xlink" viewBox="0,0,256,256" width="18px" height="18px" fill-rule="nonzero"><g fill="none" fill-rule="nonzero" stroke="none" stroke-width="1" stroke-linecap="butt" stroke-linejoin="miter" stroke-miterlimit="10" stroke-dasharray="" stroke-dashoffset="0" font-family="none" font-weight="none" font-size="none" text-anchor="none" style="mix-blend-mode: normal"><g transform="scale(5.33333,5.33333)"><path d="M6,8h36v26h-36z" fill="#546e7a"></path><path d="M8,10h32v21h-32z" fill="#bbdefb"></path><path d="M21,34h6v3h-6zM33,37c-2,0 -16,0 -18,0c-2,0 -2,2 -2,2v1h22v-1c0,0 0,-2 -2,-2z" fill="#455a64"></path></g></g><g fill="#526b77" fill-rule="nonzero" stroke="none" stroke-width="1" stroke-linecap="butt" stroke-linejoin="miter" stroke-miterlimit="10" stroke-dasharray="" stroke-dashoffset="0" font-family="none" font-weight="none" font-size="none" text-anchor="none" style="mix-blend-mode: normal"><g><path d="M119.725,115.52833v-10.59h7.22c3.44,0 5.98667,-0.86 7.64,-2.58c1.66,-1.72 2.49,-4.00333 2.49,-6.85v0c0,-2.74667 -0.82333,-4.88667 -2.47,-6.42c-1.64,-1.53333 -3.89667,-2.3 -6.77,-2.3v0c-2.59333,0 -4.76333,0.71333 -6.51,2.14c-1.75333,1.42 -2.63,3.27 -2.63,5.55v0h-13.55c0,-3.56 0.96333,-6.75333 2.89,-9.58c1.92,-2.83333 4.60667,-5.04667 8.06,-6.64c3.45333,-1.59333 7.25667,-2.39 11.41,-2.39v0c7.22,0 12.87667,1.72667 16.97,5.18c4.09333,3.45333 6.14,8.21333 6.14,14.28v0c0,3.12 -0.95333,5.99333 -2.86,8.62c-1.90667,2.62667 -4.40667,4.64333 -7.5,6.05v0c3.84667,1.37333 6.71333,3.43667 8.6,6.19c1.89333,2.74667 2.84,5.99667 2.84,9.75v0c0,6.06 -2.21,10.91667 -6.63,14.57c-4.42,3.66 -10.27333,5.49 -17.56,5.49v0c-6.81333,0 -12.38333,-1.79667 -16.71,-5.39c-4.32667,-3.59333 -6.49,-8.34333 -6.49,-14.25v0h13.55c0,2.56 0.96,4.65333 2.88,6.28c1.92,1.62667 4.28667,2.44 7.1,2.44v0c3.22,0 5.74333,-0.85333 7.57,-2.56c1.82667,-1.7 2.74,-3.95667 2.74,-6.77v0c0,-6.81333 -3.75,-10.22 -11.25,-10.22v0z"></path></g></g></svg>