<svg xmlns="http://www.w3.org/2000/svg" xmlns:xlink="http://www.w3.org/1999/xlink" viewBox="0,0,256,256" width="18px" height="18px" fill-rule="nonzero"><g fill="none" fill-rule="nonzero" stroke="none" stroke-width="1" stroke-linecap="butt" stroke-linejoin="miter" stroke-miterlimit="10" stroke-dasharray="" stroke-dashoffset="0" font-family="none" font-weight="none" font-size="none" text-anchor="none" style="mix-blend-mode: normal"><g transform="scale(5.33333,5.33333)"><path d="M6,8h36v26h-36z" fill="#546e7a"></path><path d="M8,10h32v21h-32z" fill="#bbdefb"></path><path d="M21,34h6v3h-6zM33,37c-2,0 -16,0 -18,0c-2,0 -2,2 -2,2v1h22v-1c0,0 0,-2 -2,-2z" fill="#455a64"></path></g></g><g fill="#526b77" fill-rule="nonzero" stroke="none" stroke-width="1" stroke-linecap="butt" stroke-linejoin="miter" stroke-miterlimit="10" stroke-dasharray="" stroke-dashoffset="0" font-family="none" font-weight="none" font-size="none" text-anchor="none" style="mix-blend-mode: normal"><g><path d="M138.945,75.98833h2.25v11.15h-1.31c-6.12667,0.09333 -11.05667,1.68667 -14.79,4.78c-3.73333,3.1 -5.97667,7.4 -6.73,12.9v0c3.62667,-3.69333 8.20667,-5.54 13.74,-5.54v0c5.93333,0 10.65,2.12667 14.15,6.38c3.5,4.24667 5.25,9.84 5.25,16.78v0c0,4.44 -0.96,8.45667 -2.88,12.05c-1.92,3.59333 -4.64,6.39 -8.16,8.39c-3.51333,2 -7.49,3 -11.93,3v0c-7.18667,0 -12.99,-2.5 -17.41,-7.5c-4.42,-5 -6.63,-11.67333 -6.63,-20.02v0v-4.87c0,-7.40667 1.39667,-13.94667 4.19,-19.62c2.8,-5.67333 6.81667,-10.06333 12.05,-13.17c5.23333,-3.11333 11.30333,-4.68333 18.21,-4.71zM127.975,110.15833v0c-2.18667,0 -4.17,0.57 -5.95,1.71c-1.78,1.14 -3.09333,2.64667 -3.94,4.52v0v4.13c0,4.53333 0.89,8.07333 2.67,10.62c1.78667,2.54667 4.28667,3.82 7.5,3.82v0c2.90667,0 5.26,-1.15 7.06,-3.45c1.79333,-2.29333 2.69,-5.27 2.69,-8.93v0c0,-3.72 -0.90667,-6.72 -2.72,-9c-1.80667,-2.28 -4.24333,-3.42 -7.31,-3.42z"></path></g></g></svg>