<svg xmlns="http://www.w3.org/2000/svg" xmlns:xlink="http://www.w3.org/1999/xlink" viewBox="0,0,256,256" width="18px" height="18px" fill-rule="nonzero"><g fill="none" fill-rule="nonzero" stroke="none" stroke-width="1" stroke-linecap="butt" stroke-linejoin="miter" stroke-miterlimit="10" stroke-dasharray="" stroke-dashoffset="0" font-family="none" font-weight="none" font-size="none" text-anchor="none" style="mix-blend-mode: normal"><g transform="scale(5.33333,5.33333)"><path d="M6,8h36v26h-36z" fill="#546e7a"></path><path d="M8,10h32v21h-32z" fill="#bbdefb"></path><path d="M21,34h6v3h-6zM33,37c-2,0 -16,0 -18,0c-2,0 -2,2 -2,2v1h22v-1c0,0 0,-2 -2,-2z" fill="#455a64"></path></g></g><g fill="#526b77" fill-rule="nonzero" stroke="none" stroke-width="1" stroke-linecap="butt" stroke-linejoin="miter" stroke-miterlimit="10" stroke-dasharray="" stroke-dashoffset="0" font-family="none" font-weight="none" font-size="none" text-anchor="none" style="mix-blend-mode: normal"><g><path d="M152.07,134.60833v10.92h-46.78v-9.28l22.08,-23.53c3.03333,-3.31333 5.27667,-6.20333 6.73,-8.67c1.45333,-2.47333 2.18,-4.82 2.18,-7.04v0c0,-3.02667 -0.76667,-5.40667 -2.3,-7.14c-1.53333,-1.74 -3.72,-2.61 -6.56,-2.61v0c-3.06667,0 -5.48333,1.05667 -7.25,3.17c-1.76,2.10667 -2.64,4.88 -2.64,8.32v0h-13.6c0,-4.16 0.99333,-7.95667 2.98,-11.39c1.98,-3.44 4.78333,-6.13667 8.41,-8.09c3.62667,-1.95333 7.73667,-2.93 12.33,-2.93v0c7.03333,0 12.49333,1.69 16.38,5.07c3.89333,3.37333 5.84,8.13667 5.84,14.29v0c0,3.37333 -0.87667,6.81 -2.63,10.31c-1.74667,3.5 -4.74667,7.58 -9,12.24v0l-15.51,16.36z"></path></g></g></svg>