<svg xmlns="http://www.w3.org/2000/svg" xmlns:xlink="http://www.w3.org/1999/xlink" viewBox="0,0,256,256" width="18px" height="18px" fill-rule="nonzero"><g fill="none" fill-rule="nonzero" stroke="none" stroke-width="1" stroke-linecap="butt" stroke-linejoin="miter" stroke-miterlimit="10" stroke-dasharray="" stroke-dashoffset="0" font-family="none" font-weight="none" font-size="none" text-anchor="none" style="mix-blend-mode: normal"><g transform="scale(5.33333,5.33333)"><path d="M6,8h36v26h-36z" fill="#546e7a"></path><path d="M8,10h32v21h-32z" fill="#bbdefb"></path><path d="M21,34h6v3h-6zM33,37c-2,0 -16,0 -18,0c-2,0 -2,2 -2,2v1h22v-1c0,0 0,-2 -2,-2z" fill="#455a64"></path></g></g><g fill="#526b77" fill-rule="nonzero" stroke="none" stroke-width="1" stroke-linecap="butt" stroke-linejoin="miter" stroke-miterlimit="10" stroke-dasharray="" stroke-dashoffset="0" font-family="none" font-weight="none" font-size="none" text-anchor="none" style="mix-blend-mode: normal"><g><path d="M149.615,94.94833v0c0,3.31333 -0.83,6.25 -2.49,8.81c-1.65333,2.56667 -3.93333,4.61333 -6.84,6.14v0c3.31333,1.59333 5.93667,3.79 7.87,6.59c1.94,2.8 2.91,6.09 2.91,9.87v0c0,6.06 -2.06333,10.84667 -6.19,14.36c-4.12667,3.52 -9.73667,5.28 -16.83,5.28c-7.09333,0 -12.71667,-1.76667 -16.87,-5.3c-4.16,-3.53333 -6.24,-8.31333 -6.24,-14.34v0c0,-3.78 0.97,-7.07667 2.91,-9.89c1.94,-2.81333 4.55,-5.00333 7.83,-6.57v0c-2.90667,-1.52667 -5.18,-3.57333 -6.82,-6.14c-1.64,-2.56 -2.46,-5.49667 -2.46,-8.81v0c0,-5.81333 1.93667,-10.44667 5.81,-13.9c3.87333,-3.45333 9.14,-5.18 15.8,-5.18v0c6.62,0 11.87667,1.71333 15.77,5.14c3.89333,3.42 5.84,8.06667 5.84,13.94zM137.465,125.36833v0c0,-2.96667 -0.85667,-5.34 -2.57,-7.12c-1.72,-1.78 -4.03333,-2.67 -6.94,-2.67v0c-2.87333,0 -5.17,0.88 -6.89,2.64c-1.72,1.76667 -2.58,4.15 -2.58,7.15v0c0,2.90667 0.84333,5.25 2.53,7.03c1.68667,1.78667 4.03,2.68 7.03,2.68v0c2.94,0 5.24667,-0.86 6.92,-2.58c1.66667,-1.72 2.5,-4.09667 2.5,-7.13zM136.065,95.60833v0c0,-2.66 -0.70333,-4.79333 -2.11,-6.4c-1.40667,-1.61333 -3.39,-2.42 -5.95,-2.42v0c-2.53333,0 -4.50333,0.78333 -5.91,2.35c-1.40667,1.56 -2.11,3.71667 -2.11,6.47v0c0,2.72 0.70333,4.90667 2.11,6.56c1.40667,1.65333 3.39,2.48 5.95,2.48c2.56667,0 4.54333,-0.82667 5.93,-2.48c1.39333,-1.65333 2.09,-3.84 2.09,-6.56z"></path></g></g></svg>