<svg xmlns="http://www.w3.org/2000/svg" xmlns:xlink="http://www.w3.org/1999/xlink" viewBox="0,0,256,256" width="18px" height="18px" fill-rule="nonzero"><g fill="none" fill-rule="nonzero" stroke="none" stroke-width="1" stroke-linecap="butt" stroke-linejoin="miter" stroke-miterlimit="10" stroke-dasharray="" stroke-dashoffset="0" font-family="none" font-weight="none" font-size="none" text-anchor="none" style="mix-blend-mode: normal"><g transform="scale(5.33333,5.33333)"><path d="M6,8h36v26h-36z" fill="#546e7a"></path><path d="M8,10h32v21h-32z" fill="#bbdefb"></path><path d="M21,34h6v3h-6zM33,37c-2,0 -16,0 -18,0c-2,0 -2,2 -2,2v1h22v-1c0,0 0,-2 -2,-2z" fill="#455a64"></path></g></g><g fill="#526b77" fill-rule="nonzero" stroke="none" stroke-width="1" stroke-linecap="butt" stroke-linejoin="miter" stroke-miterlimit="10" stroke-dasharray="" stroke-dashoffset="0" font-family="none" font-weight="none" font-size="none" text-anchor="none" style="mix-blend-mode: normal"><g><path d="M145.205,76.80833v42.56h7.73v10.92h-7.73v14.77h-13.55v-14.77h-27.98l-0.61,-8.53l28.45,-44.95zM130.765,96.82833l-14.2,22.54h15.09v-24.09z"></path></g></g></svg>