<?xml version="1.0" encoding="utf-8"?><!-- Generator: Adobe Illustrator 15.0.0, SVG Export Plug-In . SVG Version: 6.00 Build 0)  --><!DOCTYPE svg PUBLIC "-//W3C//DTD SVG 1.1//EN" "http://www.w3.org/Graphics/SVG/1.1/DTD/svg11.dtd"><svg xmlns="http://www.w3.org/2000/svg" xmlns:xlink="http://www.w3.org/1999/xlink" viewBox="0 0 48 48" width="18px" height="18px"><path fill="#78909C" d="M45,38c0,1.104-0.896,2-2,2H5c-1.104,0-2-0.896-2-2V10c0-1.104,0.896-2,2-2h38c1.104,0,2,0.896,2,2V38z"/><path fill="#37474F" d="M43,8H14v32h29c1.104,0,2-0.896,2-2V10C45,8.896,44.104,8,43,8z"/><g><rect x="16" y="22" fill="#546E7A" width="6" height="16"/><rect x="23" y="22" fill="#546E7A" width="6" height="16"/><rect x="30" y="22" fill="#546E7A" width="6" height="16"/><rect x="37" y="22" fill="#546E7A" width="6" height="16"/></g><g><circle fill="#CFD8DC" cx="19" cy="26" r="2"/><circle fill="#CFD8DC" cx="26" cy="26" r="2"/><circle fill="#CFD8DC" cx="33" cy="26" r="2"/><circle fill="#CFD8DC" cx="40" cy="26" r="2"/></g><rect x="20" y="11" fill="#448AFF" width="19" height="5"/><circle fill="#37474F" cx="8.5" cy="19.5" r="2.5"/><g><circle fill="#76FF03" cx="19" cy="20" r="1"/><circle fill="#76FF03" cx="8.5" cy="19.5" r="1"/><circle fill="#76FF03" cx="33" cy="20" r="1"/><circle fill="#76FF03" cx="40" cy="20" r="1"/><circle fill="#76FF03" cx="26" cy="20" r="1"/><circle fill="#76FF03" cx="19" cy="20" r="1"/><circle fill="#76FF03" cx="33" cy="20" r="1"/><circle fill="#76FF03" cx="40" cy="20" r="1"/><circle fill="#76FF03" cx="26" cy="20" r="1"/></g></svg>