<svg xmlns="http://www.w3.org/2000/svg"  viewBox="0 0 48 48" width="18px" height="18px"><path fill="#388e3c" d="M9,15v23h4v-3c0-0.6,0.4-1,1-1h9c0.6,0,1,0.4,1,1v3h21V15H9z"/><path fill="#fdd835" d="M26 34h2v4h-2V34zM29 34h2v4h-2V34zM32 34h2v4h-2V34zM35 34h2v4h-2V34zM41 34h2v4h-2V34z"/><path fill="#b0bec5" d="M10 42H8V9c0-.8-.6-1-1-1H3V6h4c1.2 0 3 .8 3 3V42zM10 23h7v7h-7V23z"/><path fill="#1b5e20" d="M24 22c0 1.1-.9 2-2 2s-2-.9-2-2 .9-2 2-2S24 20.9 24 22zM17 27h13v2H17V27z"/><path fill="#1b5e20" d="M23,21h6v2h-6V21z"/><path fill="#eceff1" d="M31 19h2v12h-2V19zM34 19h2v12h-2V19zM37 19h2v12h-2V19z"/><path fill="#eceff1" d="M29 27h12v2H29V27zM29 24h12v2H29V24zM29 21h12v2H29V21z"/><path fill="#37474f" d="M30,20h10v10H30V20z"/></svg>