<svg xmlns="http://www.w3.org/2000/svg" xmlns:xlink="http://www.w3.org/1999/xlink" viewBox="0,0,256,256" width="18px" height="18px" fill-rule="nonzero"><g fill="none" fill-rule="nonzero" stroke="none" stroke-width="1" stroke-linecap="butt" stroke-linejoin="miter" stroke-miterlimit="10" stroke-dasharray="" stroke-dashoffset="0" font-family="none" font-weight="none" font-size="none" text-anchor="none" style="mix-blend-mode: normal"><g transform="scale(5.33333,5.33333)"><path d="M40,45h-32v-42h22l10,10z" fill="#90caf9"></path><path d="M38.5,14h-9.5v-9.5z" fill="#e1f5fe"></path></g></g><g fill="none" fill-rule="nonzero" stroke="none" stroke-width="1" stroke-linecap="butt" stroke-linejoin="miter" stroke-miterlimit="10" stroke-dasharray="" stroke-dashoffset="0" font-family="none" font-weight="none" font-size="none" text-anchor="none" style="mix-blend-mode: normal"><g transform="translate(131.66667,147.66667) scale(4.84848,4.84848)" id="overlay"><path d="M1,19.3l-1,2.7l2.7,-1l7.2,-7.2l-1.7,-1.7z" fill="#b0bec5"></path><path d="M13,13.4l-4.3,-4.4l8.4,-7.2l3.1,3.1z" fill="#d84315"></path><g fill="#ff5722"><path d="M22,4.9l-0.8,0.8c-0.4,0.4 -1.2,0.4 -1.602,0l-3.198,-3.2c-0.4,-0.4 -0.4,-1.2 0,-1.6l0.7,-0.9zM12.2,18l0.898,-0.9c1.2,-1.198 1.2,-3.198 0,-4.398l-3.798,-3.802c-1.2,-1.2 -3.2,-1.2 -4.4,0l-0.9,0.9z"></path></g></g></g></svg>