<svg xmlns="http://www.w3.org/2000/svg"  viewBox="0 0 48 48" width="18px" height="18px"><path fill="#B0BEC5" d="M9.536 41.293L6 42 6.706 38.465 19.436 25.736 22.264 28.564z"/><path fill="#D84315" d="M28.071 27.106L21 20.035 34 9 39 14z"/><path fill="#FF5722" d="M33.515 6l-1.414 1.415c-.781.78-.781 2.047 0 2.828l5.656 5.656c.781.781 2.048.781 2.828 0L42 14.485 33.515 6zM26.121 35l1.415-1.414c1.952-1.953 1.952-5.118 0-7.071l-6.051-6.051c-1.953-1.952-5.118-1.952-7.071 0L13 21.879 26.121 35z"/></svg>