<svg xmlns="http://www.w3.org/2000/svg"  viewBox="0 0 48 48" width="18px" height="18px"><path fill="#616161" d="M4,26h40v-7c0-2.209-1.791-4-4-4H8c-2.209,0-4,1.791-4,4V26z"/><path fill="#424242" d="M9 12H39V15H9zM8 37h32c2.209 0 4-1.791 4-4v-8H4v8C4 35.209 5.791 37 8 37"/><path fill="#00E676" d="M39,19c0,0.552,0.448,1,1,1s1-0.448,1-1s-0.448-1-1-1S39,18.448,39,19"/><path fill="#242424" d="M37.5,32h-27C9.672,32,9,31.328,9,30.5S9.672,29,10.5,29h27c0.828,0,1.5,0.672,1.5,1.5S38.328,32,37.5,32"/><path fill="#90CAF9" d="M11 5H37V15H11zM11 32H37V43H11z"/><path fill="#42A5F5" d="M11 30H37V32H11z"/><g><path fill="#1976D2" d="M16 34H33V36H16zM16 38H29V40H16z"/></g></svg>