<svg xmlns="http://www.w3.org/2000/svg" xmlns:xlink="http://www.w3.org/1999/xlink" viewBox="0,0,256,256" width="48px" height="48px" fill-rule="nonzero"><g fill="#339af0" fill-rule="nonzero" stroke="none" stroke-width="1" stroke-linecap="butt" stroke-linejoin="miter" stroke-miterlimit="10" stroke-dasharray="" stroke-dashoffset="0" font-family="none" font-weight="none" font-size="none" text-anchor="none" style="mix-blend-mode: normal"><g transform="scale(5.33333,5.33333)"><path d="M31,7.002l13,1.686l-10.704,10.312zM17,41l-13,-1.686l10.704,-10.314z"></path><path d="M8,24c0,-8.837 7.163,-16 16,-16c1.024,0 2.021,0.106 2.992,0.29l0.693,-3.865c-1.16,-0.313 -2.423,-0.42 -3.685,-0.42c-11.053,0 -20,8.947 -20,20c0,4.844 1.686,9.474 4.844,13.051l3.037,-2.629c-2.413,-2.802 -3.881,-6.44 -3.881,-10.427zM39.473,11.267l-3.143,2.537c2.292,2.768 3.67,6.321 3.67,10.196c0,8.837 -7.163,16 -16,16c-1.029,0 -2.033,-0.106 -3.008,-0.292l-0.676,3.771c1.262,0.21 2.525,0.317 3.684,0.317c11.053,0 20,-8.947 20,-20c0,-4.421 -1.579,-8.948 -4.527,-12.529z"></path></g></g></svg>