<svg xmlns="http://www.w3.org/2000/svg" xmlns:xlink="http://www.w3.org/1999/xlink" viewBox="0,0,256,256" width="18px" height="18px" fill-rule="nonzero"><g fill="none" fill-rule="nonzero" stroke="none" stroke-width="1" stroke-linecap="butt" stroke-linejoin="miter" stroke-miterlimit="10" stroke-dasharray="" stroke-dashoffset="0" font-family="none" font-weight="none" font-size="none" text-anchor="none" style="mix-blend-mode: normal"><g transform="scale(5.33333,5.33333)"><path d="M40,12h-18l-4,-4h-10c-2.2,0 -4,1.8 -4,4v8h40v-4c0,-2.2 -1.8,-4 -4,-4z" fill="#ffa000"></path><path d="M40,12h-32c-2.2,0 -4,1.8 -4,4v20c0,2.2 1.8,4 4,4h32c2.2,0 4,-1.8 4,-4v-20c0,-2.2 -1.8,-4 -4,-4z" fill="#ffca28"></path></g></g><g fill="none" fill-rule="nonzero" stroke="none" stroke-width="1" stroke-linecap="butt" stroke-linejoin="miter" stroke-miterlimit="10" stroke-dasharray="" stroke-dashoffset="0" font-family="none" font-weight="none" font-size="none" text-anchor="none" style="mix-blend-mode: normal"><g transform="translate(131.66667,147.66667) scale(5.33333,5.33333)" id="overlay"><g><path d="M20,10c0,5.5 -4.5,10 -10,10c-5.5,0 -10,-4.5 -10,-10c0,-5.5 4.5,-10 10,-10c5.5,0 10,4.5 10,10" fill="#ff3d00"></path><path d="M15.3,6.8l-2.1,-2.1l-3.2,3.2l-3.2,-3.2l-2.1,2.1l3.2,3.2l-3.2,3.2l2.1,2.1l3.2,-3.2l3.2,3.2l2.1,-2.1l-3.2,-3.2z" fill="#ffffff"></path></g></g></g></svg>