<svg xmlns="http://www.w3.org/2000/svg" xmlns:xlink="http://www.w3.org/1999/xlink" viewBox="0,0,256,256" width="48px" height="48px" fill-rule="nonzero"><g fill="none" fill-rule="nonzero" stroke="none" stroke-width="1" stroke-linecap="butt" stroke-linejoin="miter" stroke-miterlimit="10" stroke-dasharray="" stroke-dashoffset="0" font-family="none" font-weight="none" font-size="none" text-anchor="none" style="mix-blend-mode: normal"><g transform="scale(5.33333,5.33333)"><path d="M42,35c0,2.209 -1.791,3 -4,3h-28c-2.209,0 -4,-0.791 -4,-3l3,-12c0.219,-2.094 1.791,-4 4,-4h22c2.209,0 3.688,1.75 4,4z" fill="#455a64"></path><path d="M42,27c0,2.209 -1.791,3 -4,3h-28c-2.209,0 -4,-0.791 -4,-3l3,-12c0.219,-2.094 1.791,-4 4,-4h22c2.209,0 3.688,1.75 4,4z" fill="#455a64"></path><path d="M42,19c0,2.209 -1.791,3 -4,3h-28c-2.209,0 -4,-0.791 -4,-3l3,-12c0.61,-1.662 1.791,-3 4,-3h22c2.209,0 3.201,1.087 4,3z" fill="#455a64"></path><g fill="#78909c"><path d="M38,22h-28c-2.209,0 -4,-0.791 -4,-3v6c0,2.209 1.791,3 4,3h28c2.209,0 4,-0.791 4,-3v-6c0,2.209 -1.791,3 -4,3z"></path><path d="M38,30h-28c-2.209,0 -4,-0.791 -4,-3v6c0,2.209 1.791,3 4,3h28c2.209,0 4,-0.791 4,-3v-6c0,2.209 -1.791,3 -4,3z"></path><path d="M38,38h-28c-2.209,0 -4,-0.791 -4,-3v6c0,2.209 1.791,3 4,3h28c2.209,0 4,-0.791 4,-3v-6c0,2.209 -1.791,3 -4,3z"></path></g><g fill="#64dd17"><path d="M35,39c-1.10457,0 -2,0.89543 -2,2c0,1.10457 0.89543,2 2,2c1.10457,0 2,-0.89543 2,-2c0,-1.10457 -0.89543,-2 -2,-2zM35,31c-1.10457,0 -2,0.89543 -2,2c0,1.10457 0.89543,2 2,2c1.10457,0 2,-0.89543 2,-2c0,-1.10457 -0.89543,-2 -2,-2zM35,23c-1.10457,0 -2,0.89543 -2,2c0,1.10457 0.89543,2 2,2c1.10457,0 2,-0.89543 2,-2c0,-1.10457 -0.89543,-2 -2,-2z"></path></g></g></g><g fill="#2196f3" fill-rule="nonzero" stroke="none" stroke-width="1" stroke-linecap="butt" stroke-linejoin="miter" stroke-miterlimit="10" stroke-dasharray="" stroke-dashoffset="0" font-family="none" font-weight="none" font-size="none" text-anchor="none" style="mix-blend-mode: normal"><g transform="translate(138.62319,147.66667) scale(4.63768,4.63768)" id="overlay"><path d="M10,3v-3l-7,5l7,5v-3c3.3,0 6,2.7 6,6c0,3.3 -2.7,6 -6,6c-3.3,0 -6,-2.7 -6,-6c0,-0.3 0,-0.6 0.1,-0.9l-3.4,-2.7c-0.4,1.1 -0.7,2.3 -0.7,3.6c0,5.5 4.5,10 10,10c5.5,0 10,-4.5 10,-10c0,-5.5 -4.5,-10 -10,-10z"></path></g></g></svg>