<svg xmlns="http://www.w3.org/2000/svg" xmlns:xlink="http://www.w3.org/1999/xlink" viewBox="0,0,256,256" width="48px" height="48px" fill-rule="nonzero"><g fill="none" fill-rule="nonzero" stroke="none" stroke-width="1" stroke-linecap="butt" stroke-linejoin="miter" stroke-miterlimit="10" stroke-dasharray="" stroke-dashoffset="0" font-family="none" font-weight="none" font-size="none" text-anchor="none" style="mix-blend-mode: normal"><g transform="scale(5.33333,5.33333)"><path d="M42,35c0,2.209 -1.791,3 -4,3h-28c-2.209,0 -4,-0.791 -4,-3l3,-12c0.219,-2.094 1.791,-4 4,-4h22c2.209,0 3.688,1.75 4,4z" fill="#455a64"></path><path d="M42,27c0,2.209 -1.791,3 -4,3h-28c-2.209,0 -4,-0.791 -4,-3l3,-12c0.219,-2.094 1.791,-4 4,-4h22c2.209,0 3.688,1.75 4,4z" fill="#455a64"></path><path d="M42,19c0,2.209 -1.791,3 -4,3h-28c-2.209,0 -4,-0.791 -4,-3l3,-12c0.61,-1.662 1.791,-3 4,-3h22c2.209,0 3.201,1.087 4,3z" fill="#455a64"></path><g fill="#78909c"><path d="M38,22h-28c-2.209,0 -4,-0.791 -4,-3v6c0,2.209 1.791,3 4,3h28c2.209,0 4,-0.791 4,-3v-6c0,2.209 -1.791,3 -4,3z"></path><path d="M38,30h-28c-2.209,0 -4,-0.791 -4,-3v6c0,2.209 1.791,3 4,3h28c2.209,0 4,-0.791 4,-3v-6c0,2.209 -1.791,3 -4,3z"></path><path d="M38,38h-28c-2.209,0 -4,-0.791 -4,-3v6c0,2.209 1.791,3 4,3h28c2.209,0 4,-0.791 4,-3v-6c0,2.209 -1.791,3 -4,3z"></path></g><g fill="#64dd17"><path d="M35,39c-1.10457,0 -2,0.89543 -2,2c0,1.10457 0.89543,2 2,2c1.10457,0 2,-0.89543 2,-2c0,-1.10457 -0.89543,-2 -2,-2zM35,31c-1.10457,0 -2,0.89543 -2,2c0,1.10457 0.89543,2 2,2c1.10457,0 2,-0.89543 2,-2c0,-1.10457 -0.89543,-2 -2,-2zM35,23c-1.10457,0 -2,0.89543 -2,2c0,1.10457 0.89543,2 2,2c1.10457,0 2,-0.89543 2,-2c0,-1.10457 -0.89543,-2 -2,-2z"></path></g></g></g><g fill="none" fill-rule="nonzero" stroke="none" stroke-width="1" stroke-linecap="butt" stroke-linejoin="miter" stroke-miterlimit="10" stroke-dasharray="" stroke-dashoffset="0" font-family="none" font-weight="none" font-size="none" text-anchor="none" style="mix-blend-mode: normal"><g transform="translate(131.66667,147.66667) scale(4.84848,4.84848)" id="overlay"><path d="M21.7,3.1l-2.8,-2.8c-0.4,-0.4 -1.1,-0.4 -1.6,0l-1.3,1.3l4.4,4.4l1.3,-1.3c0.4,-0.4 0.4,-1.1 0,-1.6" fill="#e57373"></path><path transform="translate(9.81552,12.15894) rotate(-45) scale(0.99999,0.99999)" d="M-8.7,3.1v-6.2h17.4v6.2z" fill="#ff9800"></path><path d="M13.776,3.816l2.224,-2.216l4.4,4.4l-2.24,2.2z" fill="#b0bec5"></path><path d="M1.472,16.119l-0.731,2.922l2.206,2.206l2.909,-0.744z" fill="#ffc107"></path><path d="M0.741,19.041l-0.741,2.959l2.947,-0.753z" fill="#37474f"></path></g></g></svg>