<svg xmlns="http://www.w3.org/2000/svg"  viewBox="0 0 48 48" width="18px" height="18px"><path fill="#0277BD" d="M44 38L11 38 11 4 39 4 44 9z"/><path fill="#90A4AE" d="M19,4v9c0,1.104,0.896,2,2,2h13c1.104,0,2-0.896,2-2V4H19z"/><path fill="#37474F" d="M28 6H32V13H28z"/><path fill="#3498DB" d="M38 44L4 44 4 10 33 10 38 15z"/><path fill="#FFF" d="M35,41c0,0.553-0.447,1-1,1H8c-0.553,0-1-0.447-1-1V27c0-0.553,0.447-1,1-1h26c0.553,0,1,0.447,1,1V41z"/><path fill="#CFD8DC" d="M11 33H31V35H11zM11 29H31V31H11zM11 37H31V39H11z"/><path fill="#2980B9" d="M7,10v9c0,1.104,0.896,2,2,2h13c1.104,0,2-0.896,2-2v-9H7z"/><path fill="#B0BEC5" d="M13,10v9c0,1.104,0.896,2,2,2h13c1.104,0,2-0.896,2-2v-9H13z"/><path fill="#455A64" d="M22 12H26V19H22z"/><path fill="#01579B" d="M34.414 8.586L33.828 8 33 8 30 8 24 8 14 8 11 8 11 10 14 10 24 10 30 10 33 10 38 15 38 38 40 38 40 15 40 14.172 39.414 13.586z"/><path fill="#78909C" d="M34.414 8.586L33.828 8 33 8 30 8 24 8 19 8 19 10 24 10 30 10 33 10 36 13 36 10.172z"/><path fill="#263238" d="M28 8H32V10H28z"/></svg>