<?xml version="1.0" encoding="utf-8"?><!-- Generator: Adobe Illustrator 15.0.0, SVG Export Plug-In . SVG Version: 6.00 Build 0)  --><!DOCTYPE svg PUBLIC "-//W3C//DTD SVG 1.1//EN" "http://www.w3.org/Graphics/SVG/1.1/DTD/svg11.dtd"><svg xmlns="http://www.w3.org/2000/svg" xmlns:xlink="http://www.w3.org/1999/xlink" viewBox="0 0 48 48" width="48px" height="48px" fill-rule="evenodd" clip-rule="evenodd"><path fill="#3F51B5" d="M8,10l6-6h25c0.553,0,1,0.447,1,1v37c0,0.553-0.447,1-1,1H9c-0.552,0-1-0.447-1-1V10z"/><g><path fill-rule="evenodd" clip-rule="evenodd" fill="#FFFFFF" d="M21.009,33.014l-0.327,1.034c0,0-3.08,0-3.473,0c-0.427,0-1.541,0-1.541,0.428c0,0.782,3.998,0.677,3.998,2.67c0,1.354-1.212,1.713-2.589,1.818c-0.59,0.036-1.212,0-1.802,0c-1.9,0-3.277-0.105-3.277-0.105l0.623-1.782c0,0,1.081,0.141,1.769,0.141c0.656,0,2.556,0.217,2.556-0.214c0-0.71-3.146-0.675-3.146-2.492c0-0.926,1.769-1.425,3.276-1.425C18.618,33.086,21.009,33.014,21.009,33.014L21.009,33.014z M27.693,33.977l-3.244,0.927c0.033,0.143,0.033,0.249,0,0.392c-0.361,1.211-3.571,1.354-3.571,1.354L20.125,39c0,0,8.06-0.036,8.847-3.278C29.135,35.116,28.578,34.476,27.693,33.977L27.693,33.977z M24.875,33.121c-1.442-0.178-2.817-0.107-2.817-0.107l-0.296,0.998c0,0,0.853,0,1.573,0.214L24.875,33.121L24.875,33.121z M26.285,33.405l-2.327,1.034c0.098,0.036,0.196,0.106,0.262,0.142l2.654-0.96C26.678,33.515,26.48,33.476,26.285,33.405L26.285,33.405z"/></g><g><rect x="35" y="6" fill-rule="evenodd" clip-rule="evenodd" fill="#FDD835" width="3" height="7"/><rect x="30" y="6" fill-rule="evenodd" clip-rule="evenodd" fill="#FDD835" width="3" height="7"/><rect x="25" y="6" fill-rule="evenodd" clip-rule="evenodd" fill="#FDD835" width="3" height="7"/><rect x="20" y="6" fill-rule="evenodd" clip-rule="evenodd" fill="#FDD835" width="3" height="7"/><g><polygon fill-rule="evenodd" clip-rule="evenodd" fill="#FDD835" points="10,10.854 10,13 13,13 13,7.842 "/></g><rect x="15" y="6" fill-rule="evenodd" clip-rule="evenodd" fill="#FDD835" width="3" height="7"/></g></svg>