<?xml version="1.0" encoding="utf-8"?><!-- Generator: Adobe Illustrator 15.0.0, SVG Export Plug-In . SVG Version: 6.00 Build 0)  --><!DOCTYPE svg PUBLIC "-//W3C//DTD SVG 1.1//EN" "http://www.w3.org/Graphics/SVG/1.1/DTD/svg11.dtd"><svg xmlns="http://www.w3.org/2000/svg" xmlns:xlink="http://www.w3.org/1999/xlink" viewBox="0 0 48 48" width="48px" height="48px"><g><polygon fill="#B0BEC5" points="42,12 39,12 39,9 36,9 36,6 42,6 "/><polygon fill="#B0BEC5" points="9,12 6,12 6,6 12,6 12,9 9,9 "/><polygon fill="#B0BEC5" points="42,36 39,36 39,39 36,39 36,42 42,42 "/><polygon fill="#B0BEC5" points="9,36 6,36 6,42 12,42 12,39 9,39 "/><rect x="6" y="16" fill="#B0BEC5" width="3" height="6"/><rect x="6" y="26" fill="#B0BEC5" width="3" height="6"/><rect x="39" y="16" fill="#B0BEC5" width="3" height="6"/><rect x="39" y="26" fill="#B0BEC5" width="3" height="6"/><rect x="26" y="6" fill="#B0BEC5" width="6" height="3"/><rect x="16" y="6" fill="#B0BEC5" width="6" height="3"/><rect x="26" y="39" fill="#B0BEC5" width="6" height="3"/><rect x="16" y="39" fill="#B0BEC5" width="6" height="3"/></g><g><rect x="13" y="14" fill="#2196F3" width="23" height="2"/><rect x="13" y="20" fill="#2196F3" width="20" height="2"/><rect x="13" y="26" fill="#2196F3" width="23" height="2"/><rect x="13" y="32" fill="#2196F3" width="20" height="2"/></g></svg>