<svg xmlns="http://www.w3.org/2000/svg"  viewBox="0 0 48 48" width="18px" height="18px"><path fill="#CFD8DC" d="M42,6H6C4.896,6,4,6.894,4,8v16c0,1.105,0.896,2,2,2h36c1.104,0,2-0.895,2-2V8C44,6.894,43.104,6,42,6L42,6z"/><path fill="#ECEFF1" d="M6 8H42V24H6z"/><path fill="#90A4AE" d="M24,22c-9.601,0-17.171,8.31-17.488,8.664L5.312,32l1.199,1.336C6.829,33.69,14.399,42,24,42s17.171-8.31,17.488-8.664L42.688,32l-1.199-1.336C41.171,30.31,33.601,22,24,22L24,22z"/><path fill="#FFF" d="M24,24c-8.819,0-16,8-16,8s7.181,8,16,8s16-8,16-8S32.819,24,24,24z"/><path fill="#009688" d="M17.475,25.382C16.549,26.687,16,28.278,16,30c0,4.418,3.582,8,8,8s8-3.582,8-8c0-1.722-0.549-3.313-1.475-4.618C28.53,24.563,26.325,24,24,24S19.47,24.563,17.475,25.382z"/><path fill="#37474F" d="M27,16c0,1.656-1.343,3-3,3c-1.657,0-3-1.344-3-3c0-1.656,1.343-3,3-3C25.657,13,27,14.344,27,16z M14,13c-1.657,0-3,1.344-3,3c0,1.656,1.343,3,3,3c1.657,0,3-1.344,3-3C17,14.344,15.657,13,14,13z M34,13c-1.657,0-3,1.344-3,3c0,1.656,1.343,3,3,3c1.657,0,3-1.344,3-3C37,14.344,35.657,13,34,13z"/><path fill="#263238" d="M24 27A3 3 0 1 0 24 33A3 3 0 1 0 24 27Z"/><path fill="#FFF" d="M24,27.5c0-0.826,0.672-1.5,1.5-1.5s1.5,0.674,1.5,1.5S26.328,29,25.5,29S24,28.326,24,27.5"/></svg>