<svg xmlns="http://www.w3.org/2000/svg"  viewBox="0 0 48 48" width="18px" height="18px"><path fill="#455A64" d="M42,35c0,2.209-1.791,3-4,3H10c-2.209,0-4-0.791-4-3l3-12c0.219-2.094,1.791-4,4-4h22c2.209,0,3.688,1.75,4,4L42,35z"/><path fill="#455A64" d="M42,27c0,2.209-1.791,3-4,3H10c-2.209,0-4-0.791-4-3l3-12c0.219-2.094,1.791-4,4-4h22c2.209,0,3.688,1.75,4,4L42,27z"/><path fill="#455A64" d="M42,19c0,2.209-1.791,3-4,3H10c-2.209,0-4-0.791-4-3L9,7c0.61-1.662,1.791-3,4-3h22c2.209,0,3.201,1.087,4,3L42,19z"/><g><path fill="#78909C" d="M38,22H10c-2.209,0-4-0.791-4-3v6c0,2.209,1.791,3,4,3h28c2.209,0,4-0.791,4-3v-6C42,21.209,40.209,22,38,22z"/><path fill="#78909C" d="M38,30H10c-2.209,0-4-0.791-4-3v6c0,2.209,1.791,3,4,3h28c2.209,0,4-0.791,4-3v-6C42,29.209,40.209,30,38,30z"/><path fill="#78909C" d="M38,38H10c-2.209,0-4-0.791-4-3v6c0,2.209,1.791,3,4,3h28c2.209,0,4-0.791,4-3v-6C42,37.209,40.209,38,38,38z"/></g><g><path fill="#64DD17" d="M35 39A2 2 0 1 0 35 43 2 2 0 1 0 35 39zM35 31A2 2 0 1 0 35 35 2 2 0 1 0 35 31zM35 23A2 2 0 1 0 35 27 2 2 0 1 0 35 23z"/></g></svg>