<?xml version="1.0" encoding="UTF-8" standalone="no"?>
<svg
   viewBox="0 0 48 48"
   width="18px"
   height="18px"
   version="1.1"
   id="svg4"
   sodipodi:docname="system-task.svg"
   inkscape:version="1.4.2 (f4327f4, 2025-05-13)"
   xmlns:inkscape="http://www.inkscape.org/namespaces/inkscape"
   xmlns:sodipodi="http://sodipodi.sourceforge.net/DTD/sodipodi-0.dtd"
   xmlns="http://www.w3.org/2000/svg"
   xmlns:svg="http://www.w3.org/2000/svg">
  <defs
     id="defs4" />
  <sodipodi:namedview
     id="namedview4"
     pagecolor="#ffffff"
     bordercolor="#000000"
     borderopacity="0.25"
     inkscape:showpageshadow="2"
     inkscape:pageopacity="0.0"
     inkscape:pagecheckerboard="0"
     inkscape:deskcolor="#d1d1d1"
     inkscape:zoom="47.277778"
     inkscape:cx="9"
     inkscape:cy="9"
     inkscape:window-width="1920"
     inkscape:window-height="1111"
     inkscape:window-x="-9"
     inkscape:window-y="1341"
     inkscape:window-maximized="1"
     inkscape:current-layer="svg4" />
  <path
     fill="#b0bec5"
     d="M6,8h36v27H6V8z"
     id="path1"
     style="fill:#546e7a;fill-opacity:1" />
  <path
     fill="#004d40"
     d="M9,11h30v20H9V11z"
     id="path2" />
  <path
     fill="#78909c"
     d="M21 35h6v3h-6V35zM33 38c-2 0-16 0-18 0s-2 2-2 2v1h22v-1C35 40 35 38 33 38z"
     id="path3"
     style="fill:#455a64;fill-opacity:1" />
  <path
     fill="#1de9b6"
     d="M27 28.9L19.9 16.9 16.8 22 9 22 9 20 15.7 20 20 13.1 27 25.1 30.1 20 38.9 20 38.9 22 31.2 22z"
     id="path4" />
</svg>
