<?xml version="1.0" encoding="utf-8"?><!-- Generator: Adobe Illustrator 21.0.2, SVG Export Plug-In . SVG Version: 6.00 Build 0)  --><svg xmlns="http://www.w3.org/2000/svg" xmlns:xlink="http://www.w3.org/1999/xlink" viewBox="0 0 48 48" width="48px" height="48px"><g id="surface1"><path style="fill:#90CAF9;" d="M28,5h-8v12l8-2V5z"/><path style="fill:#F44336;" d="M34,33c0,5.5-4.5,10-10,10s-10-4.5-10-10s4.5-10,10-10S34,27.5,34,33z"/><path style="fill:#F44336;" d="M28,13l-8,5v15h8V13z"/><polygon style="fill:#607D8B;" points="14.3,22 6,22 6,20 13.7,20 32.7,8 41,8 41,10 33.3,10  "/><path style="fill:#EF9A9A;" d="M24,40c-3.9,0-7-3.1-7-7c0-0.6,0.4-1,1-1s1,0.4,1,1c0,2.8,2.2,5,5,5c0.6,0,1,0.4,1,1S24.6,40,24,40z   "/></g></svg>