<?xml version="1.0" encoding="UTF-8" standalone="no"?>
<!-- Generator: Adobe Illustrator 22.1.0, SVG Export Plug-In . SVG Version: 6.00 Build 0)  -->

<svg
   viewBox="0 0 48 48"
   width="18px"
   height="18px"
   version="1.1"
   id="svg2"
   sodipodi:docname="uncheck-all.svg"
   inkscape:version="1.4.2 (f4327f4, 2025-05-13)"
   xmlns:inkscape="http://www.inkscape.org/namespaces/inkscape"
   xmlns:sodipodi="http://sodipodi.sourceforge.net/DTD/sodipodi-0.dtd"
   xmlns="http://www.w3.org/2000/svg"
   xmlns:svg="http://www.w3.org/2000/svg">
  <defs
     id="defs2" />
  <sodipodi:namedview
     id="namedview2"
     pagecolor="#ffffff"
     bordercolor="#000000"
     borderopacity="0.25"
     inkscape:showpageshadow="2"
     inkscape:pageopacity="0.0"
     inkscape:pagecheckerboard="0"
     inkscape:deskcolor="#d1d1d1"
     inkscape:zoom="49.166667"
     inkscape:cx="9"
     inkscape:cy="9"
     inkscape:window-width="1920"
     inkscape:window-height="1129"
     inkscape:window-x="-8"
     inkscape:window-y="-8"
     inkscape:window-maximized="1"
     inkscape:current-layer="svg2" />
  <g
     id="g1" />
  <path
     style="fill:#388E3C;"
     d="M43,38.833C43,41.135,41.135,43,38.833,43H17.167C14.866,43,13,41.135,13,38.833V17.167  C13,14.865,14.866,13,17.167,13h21.667C41.135,13,43,14.865,43,17.167V38.833z"
     id="path1" />
  <path
     style="fill:#C8E6C9;"
     d="M35,30.833C35,33.135,33.135,35,30.833,35H9.167C6.866,35,5,33.135,5,30.833V9.167  C5,6.865,6.866,5,9.167,5h21.667C33.135,5,35,6.865,35,9.167V30.833z"
     id="path2" />
</svg>
