<svg xmlns="http://www.w3.org/2000/svg"  viewBox="0 0 48 48" width="18px" height="18px"><path fill="#4FC3F7" d="M29,31L29,31c0,0-1,4-5,4s-5-4-5-4S8,32.986,8,44h32C40,33.025,29,31,29,31"/><path fill="#FF9800" d="M24,37c-5,0-5-6-5-6v-6h10v6C29,31,29,37,24,37z"/><path fill="#FFA726" d="M35 19c0 1.105-.895 2-2 2s-2-.895-2-2 .895-2 2-2S35 17.895 35 19M17 19c0 1.105-.895 2-2 2s-2-.895-2-2 .895-2 2-2S17 17.895 17 19"/><path fill="#FFB74D" d="M33,13c0-7.635-18-4.971-18,0v7c0,4.971,4.029,9,9,9c4.971,0,9-4.029,9-9V13z"/><path fill="#424242" d="M24,4c-6.075,0-10,4.925-10,11v2.284L16,19v-5l12-4l4,4v5l2-1.741V15c0-4.025-1.038-8.015-6-9l-1-2H24z"/><path fill="#784719" d="M27 19c0 .552.448 1 1 1s1-.448 1-1-.448-1-1-1S27 18.448 27 19M19 19c0 .552.448 1 1 1s1-.448 1-1-.448-1-1-1S19 18.448 19 19"/><path fill="#01579B" d="M24,37c5,0,6.745-3.93,6.951-5.428C29.794,31.148,29,31,29,31s-1,4-5,4s-5-4-5-4s-0.794,0.146-1.952,0.566C17.252,33.061,19,37,24,37z"/></svg>