<?xml version="1.0" encoding="iso-8859-1"?><!-- Generator: Adobe Illustrator 22.1.0, SVG Export Plug-In . SVG Version: 6.00 Build 0)  --><svg xmlns="http://www.w3.org/2000/svg" xmlns:xlink="http://www.w3.org/1999/xlink" viewBox="0 0 48 48" width="48px" height="48px"><path style="fill:#4FC3F7;" d="M29,31c0,0-1,4-5,4s-5-4-5-4S8,32.984,8,44h32C40,33.023,29,31,29,31"/><path style="fill:#EDB405;" d="M24,37c-5,0-5-6-5-6v-6h10v6C29,31,29,37,24,37z"/><path style="fill:#EDBD28;" d="M35,19c0,1.105-0.895,2-2,2s-2-0.895-2-2s0.895-2,2-2S35,17.895,35,19 M17,19c0-1.105-0.895-2-2-2  s-2,0.895-2,2s0.895,2,2,2S17,20.105,17,19"/><path style="fill:#FFCA28;" d="M33,13c0-7.637-18-4.973-18,0v7c0,4.973,4.027,9,9,9s9-4.027,9-9V13z"/><path style="fill:#424242;" d="M24,4c-6.074,0-10,4.926-10,11v2.285L16,19v-5l12-4l4,4v5l2-1.742V15c0-4.023-1.039-8.016-6-9l-1-2  H24z"/><path style="fill:#784719;" d="M27,19c0-0.551,0.449-1,1-1s1,0.449,1,1s-0.449,1-1,1S27,19.551,27,19 M19,19c0,0.551,0.449,1,1,1  s1-0.449,1-1s-0.449-1-1-1S19,18.449,19,19"/><path style="fill:#01579B;" d="M24,37c5,0,6.746-3.93,6.949-5.43C29.793,31.148,29,31,29,31s-1,4-5,4s-5-4-5-4  s-0.797,0.145-1.953,0.566C17.254,33.063,19,37,24,37z"/><path style="fill:#E57373;" d="M45.68,29.141l-2.82-2.816c-0.43-0.43-1.129-0.43-1.555,0l-1.328,1.328l4.375,4.375l1.328-1.328  C46.105,30.27,46.105,29.57,45.68,29.141"/><path style="fill:#EDB405;" d="M25.473,42.152L37.789,29.84l4.375,4.375L29.848,46.531L25.473,42.152z"/><path style="fill:#B0BEC5;" d="M44.352,32.023l-2.188,2.191l-4.379-4.379l2.188-2.188L44.352,32.023z"/><path style="fill:#FFC107;" d="M25.473,42.152L24,48l5.848-1.473L25.473,42.152z"/><path style="fill:#37474F;" d="M24.742,45.043L24,48l2.957-0.742L24.742,45.043z"/><path style="fill:#01579B;" d="M24,37c5,0,6.746-3.93,6.949-5.43C29.793,31.148,29,31,29,31s-1,4-5,4s-5-4-5-4  s-0.797,0.145-1.953,0.566C17.254,33.063,19,37,24,37z"/></svg>