<svg xmlns="http://www.w3.org/2000/svg"  viewBox="0 0 48 48" width="18px" height="18px"><path fill="#ffc107" d="M38 39L38 36 36 36 36 41 40 41 40 39z"/><path fill="#ffa726" d="M36 36H38V39H36z"/><path fill="#ffc107" d="M18 36H32V41H18zM10 36H14V41H10z"/><path fill="#43a047" d="M45,37H5V11h40c1.105,0,2,0.895,2,2v22C47,36.105,46.105,37,45,37z"/><path fill="#b0bec5" d="M6,43H4V8c0-0.552-0.449-1-1-1H1V5h2c1.654,0,3,1.346,3,3V43z"/><path fill="#455a64" d="M35 16A8 8 0 1 0 35 32A8 8 0 1 0 35 16Z"/><path fill="#78909c" d="M36.787,32.841c-0.069,0-0.139-0.007-0.209-0.022c-0.54-0.114-0.885-0.646-0.77-1.187 C35.936,31.035,36,30.448,36,29.889c0-2.509-0.682-3.541-1.341-4.539c-0.199-0.301-0.386-0.586-0.542-0.881 c-0.259-0.488-0.073-1.093,0.415-1.353c0.487-0.259,1.093-0.074,1.352,0.415c0.127,0.24,0.282,0.471,0.444,0.716 C37.033,25.315,38,26.778,38,29.889c0,0.7-0.08,1.427-0.236,2.161C37.664,32.52,37.249,32.841,36.787,32.841z"/><path fill="#78909c" d="M42.683,27.374c-0.239,0-0.478-0.085-0.669-0.258c-0.452-0.407-0.928-0.757-1.415-1.039 c-2.171-1.252-3.404-1.178-4.6-1.106c-0.361,0.021-0.702,0.04-1.035,0.028c-0.552-0.02-0.983-0.483-0.963-1.035 c0.02-0.551,0.468-0.989,1.036-0.963c0.268,0.011,0.548-0.01,0.842-0.026c1.278-0.08,3.029-0.183,5.722,1.371 c0.608,0.353,1.198,0.785,1.753,1.286c0.41,0.369,0.442,1.002,0.073,1.412C43.229,27.263,42.957,27.374,42.683,27.374z"/><path fill="#78909c" d="M34.999,25c-0.181,0-0.365-0.049-0.529-0.152c-0.468-0.293-0.61-0.91-0.317-1.378 c0.144-0.23,0.267-0.479,0.398-0.742c0.572-1.146,1.356-2.715,4.05-4.271c0.605-0.35,1.275-0.645,1.99-0.875 c0.527-0.173,1.089,0.118,1.259,0.644c0.17,0.525-0.119,1.089-0.644,1.259c-0.581,0.188-1.121,0.425-1.605,0.705 c-2.173,1.255-2.726,2.361-3.261,3.432c-0.161,0.323-0.315,0.627-0.492,0.909C35.658,24.834,35.332,25,34.999,25z"/><path fill="#78909c" d="M35.001,25c-0.358,0-0.705-0.192-0.884-0.531c-0.127-0.24-0.282-0.471-0.444-0.716 C32.967,22.685,32,21.222,32,18.111c0-0.7,0.08-1.427,0.236-2.161c0.115-0.54,0.648-0.891,1.187-0.769 c0.54,0.114,0.885,0.646,0.77,1.187C34.064,16.965,34,17.552,34,18.111c0,2.509,0.682,3.541,1.341,4.539 c0.199,0.301,0.386,0.586,0.542,0.881c0.259,0.488,0.073,1.093-0.415,1.353C35.319,24.963,35.159,25,35.001,25z"/><path fill="#78909c" d="M33.153,25.063c-1.17,0-2.683-0.214-4.753-1.408c-0.608-0.353-1.198-0.785-1.753-1.286 c-0.41-0.369-0.442-1.002-0.073-1.412s1.002-0.443,1.413-0.072c0.452,0.407,0.928,0.757,1.415,1.039 c2.171,1.253,3.404,1.178,4.6,1.106c0.36-0.021,0.7-0.042,1.035-0.028c0.552,0.02,0.983,0.483,0.963,1.035 c-0.02,0.552-0.458,1.02-1.036,0.963c-0.269-0.012-0.549,0.01-0.842,0.026C33.826,25.044,33.505,25.063,33.153,25.063z"/><path fill="#78909c" d="M29.103,30.467c-0.422,0-0.814-0.269-0.952-0.692c-0.17-0.525,0.119-1.089,0.644-1.259 c0.581-0.188,1.121-0.425,1.605-0.705c2.173-1.255,2.726-2.361,3.261-3.432c0.161-0.323,0.315-0.627,0.492-0.909 c0.293-0.469,0.911-0.61,1.378-0.317c0.468,0.293,0.61,0.91,0.317,1.378c-0.144,0.23-0.267,0.479-0.398,0.742 c-0.572,1.146-1.356,2.715-4.05,4.271c-0.605,0.35-1.275,0.645-1.99,0.875C29.308,30.451,29.204,30.467,29.103,30.467z"/><path fill="#90a4ae" d="M35,33c-4.962,0-9-4.037-9-9s4.038-9,9-9s9,4.037,9,9S39.962,33,35,33z M35,17c-3.86,0-7,3.141-7,7 s3.14,7,7,7s7-3.141,7-7S38.86,17,35,17z"/><path fill="#b0bec5" d="M22 18h-3c-.552 0-1-.447-1-1s.448-1 1-1h3c.552 0 1 .447 1 1S22.552 18 22 18zM22 22h-3c-.552 0-1-.447-1-1s.448-1 1-1h3c.552 0 1 .447 1 1S22.552 22 22 22zM22 28h-3c-.552 0-1-.447-1-1s.448-1 1-1h3c.552 0 1 .447 1 1S22.552 28 22 28zM22 32h-3c-.552 0-1-.447-1-1s.448-1 1-1h3c.552 0 1 .447 1 1S22.552 32 22 32z"/><path fill="#cfd8dc" d="M35 21A3 3 0 1 0 35 27A3 3 0 1 0 35 21Z"/><path fill="#ffa726" d="M20 37H22V41H20zM24 37H26V41H24zM28 37H30V41H28z"/><path fill="#37474f" d="M14 22h-4c-.552 0-1-.448-1-1v-4c0-.552.448-1 1-1h4c.552 0 1 .448 1 1v4C15 21.552 14.552 22 14 22zM14 32h-4c-.552 0-1-.448-1-1v-4c0-.552.448-1 1-1h4c.552 0 1 .448 1 1v4C15 31.552 14.552 32 14 32z"/></svg>