<?xml version="1.0" encoding="iso-8859-1"?><!-- Generator: Adobe Illustrator 22.1.0, SVG Export Plug-In . SVG Version: 6.00 Build 0)  --><svg xmlns="http://www.w3.org/2000/svg" xmlns:xlink="http://www.w3.org/1999/xlink" viewBox="0 0 48 48" width="100px" height="100px"><path style="fill:#455A64;" d="M42,19H6V9c0-1.657,1.343-3,3-3h30c1.657,0,3,1.343,3,3V19z"/><path style="fill:#BBDEFB;" d="M6,16h36v23c0,1.657-1.343,3-3,3H9c-1.657,0-3-1.343-3-3V16z"/><circle style="fill:#8BC34A;" cx="11" cy="11" r="2"/><circle style="fill:#FFEB3B;" cx="17" cy="11" r="2"/><path style="fill:#FAFAFA;" d="M39,12c0,0.553-0.447,1-1,1H23c-0.553,0-1-0.447-1-1v-2c0-0.553,0.447-1,1-1h15c0.553,0,1,0.447,1,1  V12z"/><rect x="9" y="19" style="fill:#90CAF9;" width="17" height="11"/><rect x="9" y="33" style="fill:#90CAF9;" width="17" height="6"/><rect x="29" y="19" style="fill:#90CAF9;" width="10" height="20"/></svg>