<svg xmlns="http://www.w3.org/2000/svg" xmlns:xlink="http://www.w3.org/1999/xlink" viewBox="0,0,256,256" width="48px" height="48px" fill-rule="nonzero"><g fill="none" fill-rule="nonzero" stroke="none" stroke-width="1" stroke-linecap="butt" stroke-linejoin="miter" stroke-miterlimit="10" stroke-dasharray="" stroke-dashoffset="0" font-family="none" font-weight="none" font-size="none" text-anchor="none" style="mix-blend-mode: normal"><g transform="scale(5.33333,5.33333)"><path d="M40,12h-18l-4,-4h-10c-2.199,0 -4,1.801 -4,4v8h40v-4c0,-2.199 -1.801,-4 -4,-4z" fill="#ffa000"></path><path d="M40,12h-32c-2.199,0 -4,1.801 -4,4v20c0,2.199 1.801,4 4,4h32c2.199,0 4,-1.801 4,-4v-20c0,-2.199 -1.801,-4 -4,-4z" fill="#ffca28"></path><path d="M29.995,24.5c0,2.486 -2.014,4.5 -4.5,4.5c-2.486,0 -4.5,-2.014 -4.5,-4.5c0,-2.486 2.014,-4.5 4.5,-4.5c2.486,0 4.5,2.014 4.5,4.5z" fill="#64b5f6"></path><path d="M20.995,28.5c0,1.934 -1.566,3.5 -3.5,3.5c-1.934,0 -3.5,-1.566 -3.5,-3.5c0,-1.934 1.566,-3.5 3.5,-3.5c1.934,0 3.5,1.566 3.5,3.5z" fill="#64b5f6"></path><path d="M32.995,28.497c0,1.932 -1.565,3.498 -3.497,3.498c-1.932,0 -3.498,-1.565 -3.498,-3.498c0,-1.933 1.565,-3.497 3.497,-3.497c1.932,0 3.498,1.565 3.498,3.497z" fill="#64b5f6"></path><path d="M23,25c0,1.657 -1.343,3 -3,3c-1.657,0 -3,-1.343 -3,-3c0,-1.657 1.343,-3 3,-3c1.657,0 3,1.343 3,3z" fill="#64b5f6"></path><path d="M26.762,27.323c0,1.899 -1.54,3.442 -3.442,3.442c-1.902,0 -3.442,-1.542 -3.442,-3.442c0,-1.901 1.54,-3.442 3.442,-3.442c1.902,0 3.442,1.541 3.442,3.442z" fill="#64b5f6"></path><path d="M16,29.778c0,1.228 0.813,2.222 1.818,2.222h11.871c1.005,0 1.311,-0.994 1.311,-2.222v-0.556c0,-1.228 -0.813,-2.222 -1.818,-2.222h-11.364c-1.005,0 -1.818,0.994 -1.818,2.222z" fill="#64b5f6"></path></g></g><g fill="none" fill-rule="nonzero" stroke="none" stroke-width="1" stroke-linecap="butt" stroke-linejoin="miter" stroke-miterlimit="10" stroke-dasharray="" stroke-dashoffset="0" font-family="none" font-weight="none" font-size="none" text-anchor="none" style="mix-blend-mode: normal"><g transform="translate(131.66667,147.66667) scale(5.33333,5.33333)" id="overlay"><path d="M20,10c0,5.5 -4.5,10 -10,10c-5.5,0 -10,-4.5 -10,-10c0,-5.5 4.5,-10 10,-10c5.5,0 10,4.5 10,10" fill="#43a047"></path><path d="M16,8h-4v-4h-4v4h-4v4h4v4h4v-4h4z" fill="#ffffff"></path></g></g></svg>