<svg xmlns="http://www.w3.org/2000/svg" xmlns:xlink="http://www.w3.org/1999/xlink" viewBox="0,0,256,256" width="48px" height="48px" fill-rule="nonzero"><g fill="none" fill-rule="nonzero" stroke="none" stroke-width="1" stroke-linecap="butt" stroke-linejoin="miter" stroke-miterlimit="10" stroke-dasharray="" stroke-dashoffset="0" font-family="none" font-weight="none" font-size="none" text-anchor="none" style="mix-blend-mode: normal"><g transform="scale(5.33333,5.33333)"><path d="M40,12h-18l-4,-4h-10c-2.199,0 -4,1.801 -4,4v8h40v-4c0,-2.199 -1.801,-4 -4,-4z" fill="#ffa000"></path><path d="M40,12h-32c-2.199,0 -4,1.801 -4,4v20c0,2.199 1.801,4 4,4h32c2.199,0 4,-1.801 4,-4v-20c0,-2.199 -1.801,-4 -4,-4z" fill="#ffca28"></path><path d="M29.995,24.5c0,2.486 -2.014,4.5 -4.5,4.5c-2.486,0 -4.5,-2.014 -4.5,-4.5c0,-2.486 2.014,-4.5 4.5,-4.5c2.486,0 4.5,2.014 4.5,4.5z" fill="#64b5f6"></path><path d="M20.995,28.5c0,1.934 -1.566,3.5 -3.5,3.5c-1.934,0 -3.5,-1.566 -3.5,-3.5c0,-1.934 1.566,-3.5 3.5,-3.5c1.934,0 3.5,1.566 3.5,3.5z" fill="#64b5f6"></path><path d="M32.995,28.497c0,1.932 -1.565,3.498 -3.497,3.498c-1.932,0 -3.498,-1.565 -3.498,-3.498c0,-1.933 1.565,-3.497 3.497,-3.497c1.932,0 3.498,1.565 3.498,3.497z" fill="#64b5f6"></path><path d="M23,25c0,1.657 -1.343,3 -3,3c-1.657,0 -3,-1.343 -3,-3c0,-1.657 1.343,-3 3,-3c1.657,0 3,1.343 3,3z" fill="#64b5f6"></path><path d="M26.762,27.323c0,1.899 -1.54,3.442 -3.442,3.442c-1.902,0 -3.442,-1.542 -3.442,-3.442c0,-1.901 1.54,-3.442 3.442,-3.442c1.902,0 3.442,1.541 3.442,3.442z" fill="#64b5f6"></path><path d="M16,29.778c0,1.228 0.813,2.222 1.818,2.222h11.871c1.005,0 1.311,-0.994 1.311,-2.222v-0.556c0,-1.228 -0.813,-2.222 -1.818,-2.222h-11.364c-1.005,0 -1.818,0.994 -1.818,2.222z" fill="#64b5f6"></path></g></g><g fill="none" fill-rule="nonzero" stroke="none" stroke-width="1" stroke-linecap="butt" stroke-linejoin="miter" stroke-miterlimit="10" stroke-dasharray="" stroke-dashoffset="0" font-family="none" font-weight="none" font-size="none" text-anchor="none" style="mix-blend-mode: normal"><g transform="translate(131.66667,147.66667) scale(4.84848,4.84848)" id="overlay"><path d="M21.7,3.1l-2.8,-2.8c-0.4,-0.4 -1.1,-0.4 -1.6,0l-1.3,1.3l4.4,4.4l1.3,-1.3c0.4,-0.4 0.4,-1.1 0,-1.6" fill="#e57373"></path><path transform="translate(9.81552,12.15894) rotate(-45) scale(0.99999,0.99999)" d="M-8.7,3.1v-6.2h17.4v6.2z" fill="#ff9800"></path><path d="M13.776,3.816l2.224,-2.216l4.4,4.4l-2.24,2.2z" fill="#b0bec5"></path><path d="M1.472,16.119l-0.731,2.922l2.206,2.206l2.909,-0.744z" fill="#ffc107"></path><path d="M0.741,19.041l-0.741,2.959l2.947,-0.753z" fill="#37474f"></path></g></g></svg>