<svg xmlns="http://www.w3.org/2000/svg" height="24" viewBox="0 -960 960 960" width="24"><path d="M480-240q17 0 28.5-11.5T520-280v-80h80q17 0 28.5-11.5T640-400q0-17-11.5-28.5T600-440h-80v-80q0-17-11.5-28.5T480-560q-17 0-28.5 11.5T440-520v80h-80q-17 0-28.5 11.5T320-400q0 17 11.5 28.5T360-360h80v80q0 17 11.5 28.5T480-240ZM160-160q-33 0-56.5-23.5T80-240v-480q0-33 23.5-56.5T160-800h240l80 80h320q33 0 56.5 23.5T880-640v400q0 33-23.5 56.5T800-160H160Zm0-80h640v-400H447l-80-80H160v480Zm0 0v-480 480Z"/></svg>
